<svg width="15" height="17" viewBox="0 0 15 17" fill="none" xmlns="http://www.w3.org/2000/svg">
<path d="M14.4877 6.98143L14.3442 6.65927C14.1072 6.12665 13.5445 5.83875 12.9941 5.92495L12.9056 5.72615C12.3903 4.5687 11.1758 3.93131 9.96254 4.12537L9.6513 3.41822C8.92122 1.75957 7.2784 0.687805 5.46609 0.687805C2.94477 0.687805 0.893555 2.73905 0.893555 5.26034V16.3223C0.893555 16.5839 1.10568 16.7961 1.36733 16.7961H3.26242C3.52407 16.7961 3.73619 16.5839 3.73619 16.3223V5.26034C3.73619 4.30648 4.51223 3.53044 5.46609 3.53044C6.15177 3.53044 6.77329 3.93586 7.0495 4.56342L7.38377 5.3226C6.51499 6.11035 6.2324 7.37732 6.72251 8.47868L6.81107 8.67741C6.38682 9.02153 6.21263 9.6284 6.45438 10.1714L6.59781 10.4936C6.91132 11.1979 7.73679 11.5197 8.44697 11.2036L13.7777 8.83056C14.4833 8.51655 14.8017 7.687 14.4877 6.98143ZM12.04 6.11155L12.1108 6.27049L7.65896 8.25221L7.58815 8.09325C7.18434 7.18575 7.58202 6.12024 8.50376 5.70922L9.65484 5.19648C10.5899 4.78287 11.6397 5.21236 12.04 6.11155ZM5.46609 2.5829C3.98975 2.5829 2.78865 3.784 2.78865 5.26034V15.8485H1.8411V5.26034C1.8411 3.26153 3.46728 1.63535 5.46609 1.63535C6.90289 1.63535 8.20529 2.48501 8.78411 3.79995L9.05902 4.42458L8.19344 4.81016L7.91673 4.18169C7.48929 3.21045 6.52734 2.5829 5.46609 2.5829ZM13.3924 7.96495L8.06161 10.338C7.83281 10.4397 7.56528 10.3371 7.46345 10.1083L7.32003 9.7861C7.24899 9.6266 7.32063 9.43999 7.48019 9.36896C7.8883 9.18728 12.9409 6.93813 13.0615 6.88443C13.2206 6.81362 13.4078 6.88544 13.4787 7.0446L13.6221 7.36677C13.7236 7.595 13.6206 7.86337 13.3924 7.96495Z" fill="#37474F"/>
</svg>
