<svg width="17" height="14" viewBox="0 0 17 14" fill="none" xmlns="http://www.w3.org/2000/svg">
<path d="M15.3263 6.76322V6.45635C15.3263 5.89105 15.0336 5.39309 14.5921 5.10513V1.75767C14.5921 0.876937 13.8756 0.160416 12.9948 0.160416H3.11807C2.23733 0.160416 1.52078 0.876937 1.52078 1.75767V5.1051C1.07925 5.39306 0.786575 5.89102 0.786575 6.45632V6.76319C0.334469 6.88224 0 7.29451 0 7.7835V11.3742C0 11.9391 0.446315 12.4016 1.00482 12.4279V12.8528C1.00482 13.113 1.21577 13.324 1.47597 13.324C1.73617 13.324 1.94711 13.113 1.94711 12.8528V12.4291H14.1658V12.8528C14.1658 13.113 14.3767 13.324 14.6369 13.324C14.8971 13.324 15.1081 13.113 15.1081 12.8528V12.4279C15.6666 12.4016 16.1129 11.939 16.1129 11.3741V7.7835C16.1129 7.29448 15.7784 6.88224 15.3263 6.76322ZM2.4631 1.75767C2.4631 1.39652 2.75691 1.10271 3.11807 1.10271H12.9948C13.356 1.10271 13.6498 1.39652 13.6498 1.75767V4.8439H13.0216V4.01345C13.0216 3.43219 12.5487 2.95928 11.9674 2.95928H9.43222C8.85096 2.95928 8.37805 3.43219 8.37805 4.01345V4.8439H7.73486V4.01345C7.73486 3.43219 7.26195 2.95928 6.68069 2.95928H4.14549C3.5642 2.95928 3.09132 3.43219 3.09132 4.01345V4.8439H2.4631V1.75767ZM12.0793 4.01342V4.73202C12.0793 4.7937 12.0291 4.84386 11.9674 4.84386H9.43222C9.37054 4.84386 9.32038 4.79367 9.32038 4.73202V4.01342C9.32038 3.95174 9.37057 3.90157 9.43222 3.90157H11.9674C12.0291 3.90157 12.0793 3.95174 12.0793 4.01342ZM6.79254 4.01342V4.73202C6.79254 4.7937 6.74234 4.84386 6.68069 4.84386H4.14549C4.08381 4.84386 4.03364 4.79367 4.03364 4.73202V4.01342C4.03364 3.95174 4.08384 3.90157 4.14549 3.90157H6.68069C6.74234 3.90157 6.79254 3.95174 6.79254 4.01342ZM1.7289 6.45632C1.7289 6.08679 2.02954 5.78619 2.39906 5.78619H13.7139C14.0834 5.78619 14.384 6.08683 14.384 6.45632V6.72848H1.7289V6.45632ZM15.1706 11.3741C15.1706 11.4363 15.1201 11.4868 15.0579 11.4868H1.05499C0.992864 11.4868 0.942291 11.4363 0.942291 11.3741V7.7835C0.942291 7.72137 0.992832 7.67083 1.05499 7.67083H15.0579C15.1201 7.67083 15.1706 7.72137 15.1706 7.7835V11.3741H15.1706Z" fill="#37474F"/>
</svg>
