<svg width="29" height="29" viewBox="0 0 29 29" fill="none" xmlns="http://www.w3.org/2000/svg">
<path d="M25.8518 20.4366C24.0249 18.8923 22.9773 16.6351 22.9773 14.2438V10.875C22.9773 6.62297 19.8187 3.10307 15.7273 2.51343V1.20826C15.7273 0.540077 15.1859 0 14.5188 0C13.852 0 13.3105 0.540077 13.3105 1.20826V2.51343C9.21782 3.10307 6.06055 6.62297 6.06055 10.875V14.2438C6.06055 16.6351 5.01292 18.8923 3.17497 20.4462C2.70503 20.8486 2.43555 21.4334 2.43555 22.052C2.43555 23.2182 3.38406 24.1667 4.55006 24.1667H24.4876C25.6538 24.1667 26.6023 23.2182 26.6023 22.052C26.6023 21.4334 26.3328 20.8486 25.8518 20.4366Z" fill="#FFC83A"/>
<path d="M14.5188 29C16.7072 29 18.5378 27.4399 18.9582 25.375H10.0793C10.4999 27.4399 12.3306 29 14.5188 29Z" fill="#FFC83A"/>
</svg>
