<svg width="77" height="77" viewBox="0 0 77 77" fill="none" xmlns="http://www.w3.org/2000/svg">
<circle opacity="0.05" cx="38.5" cy="38.5" r="38.5" fill="#E85451"/>
<circle opacity="0.1" cx="38.5" cy="38.5" r="29.5" fill="#E85451"/>
<path d="M41.4961 42.4409C42.2337 42.4409 42.8317 41.843 42.8317 41.1054C42.8317 40.3677 42.2337 39.7698 41.4961 39.7698C40.7585 39.7698 40.1605 40.3677 40.1605 41.1054C40.1605 41.843 40.7585 42.4409 41.4961 42.4409Z" fill="#E85451"/>
<path d="M45.9702 49.5195H29.3423C27.8694 49.5195 26.6712 48.3213 26.6712 46.8484V35.8967C26.6712 34.4238 27.8694 33.2255 29.3423 33.2255H48.5746C48.8787 33.2255 49.12 33.2524 49.3123 33.3074C50.0214 33.5106 50.7609 33.1004 50.9641 32.3914C51.1672 31.6823 50.7571 30.9428 50.048 30.7396C49.6131 30.615 49.1311 30.5544 48.5746 30.5544H46.9694V25.8442C46.9694 21.5189 43.3746 18 38.956 18C34.5374 18 30.9425 21.5189 30.9425 25.8442V30.5544H29.3423C26.3966 30.5544 24 32.951 24 35.8967V46.8485C24 49.7942 26.3966 52.1908 29.3423 52.1908H45.9702C46.7079 52.1908 47.3058 51.5928 47.3058 50.8552C47.3058 50.1175 46.7079 49.5196 45.9702 49.5195ZM33.6137 25.8442C33.6137 22.9918 36.0102 20.6712 38.956 20.6712C41.9017 20.6712 44.2983 22.9918 44.2983 25.8442V30.5544H33.6137V25.8442Z" fill="#E85451"/>
<path d="M36.4877 42.4409C37.2253 42.4409 37.8233 41.843 37.8233 41.1054C37.8233 40.3677 37.2253 39.7698 36.4877 39.7698C35.7501 39.7698 35.1521 40.3677 35.1521 41.1054C35.1521 41.843 35.7501 42.4409 36.4877 42.4409Z" fill="#E85451"/>
<path d="M56.0611 40.1177C56.0319 37.5275 53.9155 35.4292 51.3184 35.4292C48.7032 35.4292 46.5754 37.5569 46.5754 40.1722C46.5754 40.9098 47.1734 41.5077 47.911 41.5077C48.6487 41.5077 49.2466 40.9098 49.2466 40.1722C49.2466 39.0298 50.176 38.1004 51.3185 38.1004C52.4609 38.1004 53.3903 39.0298 53.3903 40.1722C53.3903 40.1843 53.3904 40.1964 53.3908 40.2084C53.377 41.0263 52.8857 41.7584 52.131 42.0806C50.8261 42.6378 49.9829 43.9249 49.9829 45.3595V46.5145C49.9829 47.2521 50.5808 47.8501 51.3185 47.8501C52.0561 47.8501 52.654 47.2521 52.654 46.5145V45.3595C52.654 44.9963 52.8605 44.6736 53.1799 44.5372C54.9313 43.7896 56.0627 42.0761 56.0622 40.1719C56.0622 40.1537 56.0618 40.1357 56.0611 40.1177Z" fill="#E85451"/>
<path d="M51.3126 52.1907C52.0502 52.1907 52.6482 51.5927 52.6482 50.8551C52.6482 50.1175 52.0502 49.5195 51.3126 49.5195C50.575 49.5195 49.9771 50.1175 49.9771 50.8551C49.9771 51.5927 50.575 52.1907 51.3126 52.1907Z" fill="#E85451"/>
<path d="M31.4791 42.4409C32.2167 42.4409 32.8147 41.843 32.8147 41.1054C32.8147 40.3677 32.2167 39.7698 31.4791 39.7698C30.7415 39.7698 30.1436 40.3677 30.1436 41.1054C30.1436 41.843 30.7415 42.4409 31.4791 42.4409Z" fill="#E85451"/>
</svg>
