<svg width="24" height="24" viewBox="0 0 24 24" fill="none" xmlns="http://www.w3.org/2000/svg">
<g clip-path="url(#clip0_2626_4428)">
<path d="M22.9797 0.60083H6.2156C5.6524 0.601486 5.19601 1.05788 5.19535 1.62108V6.24503L4.42876 5.09514C4.07786 4.56584 3.37217 4.40703 2.82838 4.73505L1.25121 5.68328C0.734707 5.98636 0.355817 6.47782 0.194152 7.05443C-0.381193 9.14937 0.0457097 12.7587 5.34342 18.0572C9.55641 22.2658 12.6976 23.3993 14.8625 23.3993C15.3637 23.4016 15.863 23.3364 16.3469 23.2056C16.9233 23.044 17.4147 22.6656 17.7184 22.1498L18.6654 20.571C18.9921 20.0276 18.8335 19.3234 18.3053 18.9726L14.5288 16.4551C14.0108 16.1125 13.3164 16.2252 12.9332 16.714L11.8337 18.1275C11.7188 18.2788 11.5104 18.3229 11.344 18.2312L11.1348 18.1159C10.4462 17.7406 9.58918 17.2733 7.85837 15.5425C7.6711 15.3552 7.50147 15.18 7.34224 15.0123H22.9797C23.5415 15.0128 23.9977 14.5587 23.9999 13.9969V1.62108C23.9993 1.05788 23.5429 0.601486 22.9797 0.60083ZM10.7519 18.8186L10.9551 18.9302C11.4661 19.2159 12.1092 19.0833 12.4655 18.6189L13.565 17.2054C13.69 17.0461 13.9162 17.0094 14.0851 17.1209L17.8616 19.6384C18.0332 19.7527 18.0847 19.9816 17.9788 20.1585L17.0318 21.7373C16.834 22.0764 16.5127 22.3258 16.1352 22.4335C14.2439 22.9536 10.9339 22.5135 5.91028 17.4895C0.88662 12.4654 0.448183 9.15575 0.967077 7.26608C1.07459 6.8886 1.32388 6.56733 1.66283 6.36947L3.24164 5.42203C3.41854 5.31635 3.6473 5.36788 3.76175 5.53925L6.28035 9.31577C6.39204 9.48466 6.35532 9.71103 6.19591 9.83589L4.78195 10.9357C4.31764 11.2919 4.18504 11.9349 4.47067 12.4457L4.58269 12.649C4.98277 13.3828 5.48009 14.2958 7.29296 16.1082C9.10588 17.9207 10.0185 18.4184 10.7519 18.8186ZM23.1998 13.9969C23.1985 14.1173 23.1001 14.2139 22.9797 14.213H6.62047C6.10082 13.6187 5.65273 12.9656 5.28533 12.2669L5.17008 12.0569C5.07818 11.8909 5.12216 11.6826 5.27332 11.5679L6.68728 10.4681C7.17631 10.085 7.28898 9.39051 6.94614 8.87246L5.99552 7.4457V1.62108C5.99486 1.56252 6.01784 1.50616 6.05924 1.46476C6.10064 1.42336 6.15699 1.40039 6.21556 1.40104H22.9797C23.0383 1.40039 23.0946 1.42336 23.136 1.46476C23.1774 1.50616 23.2004 1.56252 23.1997 1.62108V13.9969H23.1998Z" fill="#232323"/>
<path d="M21.6017 2.45343L14.9149 7.52468C14.7257 7.66215 14.4695 7.66215 14.2803 7.52468L7.59594 2.45343C7.41983 2.31985 7.16875 2.35436 7.03522 2.53047C6.90164 2.70657 6.93615 2.95765 7.11225 3.09118L13.7975 8.16201C14.2731 8.51338 14.9222 8.51338 15.3979 8.16201L22.0851 3.09118C22.1697 3.02704 22.2254 2.93186 22.2398 2.82665C22.2542 2.72144 22.2262 2.61482 22.1619 2.53028C22.0284 2.3545 21.7777 2.32013 21.6017 2.45343Z" fill="#232323"/>
<path d="M11.1832 8.19543L7.08464 12.5845C6.93395 12.7461 6.94281 12.9994 7.10443 13.1501C7.26605 13.3008 7.51928 13.2919 7.66997 13.1303L11.7686 8.73922C11.904 8.57586 11.8883 8.3352 11.7329 8.19074C11.5774 8.04628 11.3362 8.04834 11.1832 8.19543Z" fill="#232323"/>
<path d="M18.0385 8.19539C17.8878 8.03377 17.6346 8.02486 17.473 8.1756C17.3114 8.3263 17.3025 8.57948 17.4532 8.74115L21.5506 13.1302C21.7013 13.2919 21.9545 13.3008 22.1162 13.15C22.2778 12.9993 22.2867 12.7462 22.1359 12.5845L18.0385 8.19539Z" fill="#232323"/>
</g>
<defs>
<clipPath id="clip0_2626_4428">
<rect width="24" height="24" fill="white"/>
</clipPath>
</defs>
</svg>
