<svg width="184" height="54" viewBox="0 0 184 54" fill="none" xmlns="http://www.w3.org/2000/svg">
<path d="M0.204775 24.5173C0.202887 18.574 1.76394 12.739 4.72505 7.62129C5.21638 6.75678 6.31765 5.20067 6.31765 5.20067C6.31765 5.20067 8.01191 4.33616 8.89462 3.9575C21.3305 -1.58746 32.8768 -0.0814841 43.2982 8.80913C47.9 12.4797 50.9905 17.7737 51.9626 23.651C53.1808 31.442 48.1929 40.4052 41.3074 43.9428C41.2349 43.9621 41.1677 43.998 41.1107 44.0477C41.0538 44.0974 41.0087 44.1597 40.9788 44.2298C39.535 46.7059 37.5762 48.8283 35.2405 50.4471C32.9048 52.0658 30.2493 53.1414 27.4616 53.5979C24.6739 54.0544 21.822 53.8806 19.1073 53.0888C16.3927 52.297 13.8815 50.9066 11.7511 49.0157C8.17488 46.0543 5.28502 42.322 3.28878 38.0865C1.29253 33.8509 0.239359 29.2171 0.204775 24.5173ZM25.661 20.5734C26.4573 20.2155 26.9723 19.9751 27.4874 19.7365C27.955 19.5221 28.0736 19.2593 27.5806 18.872C26.4293 17.8988 25.5823 16.6029 25.1442 15.1443C24.7524 14.0048 23.9924 13.0353 22.9891 12.3951C21.8188 11.6228 20.4724 11.173 19.0811 11.0893C17.6898 11.0057 16.301 11.2912 15.0498 11.9179C14.6754 12.0908 13.9723 12.3 13.9723 12.3C13.922 12.7842 13.9141 13.272 13.9486 13.7576C14.1718 16.2344 13.6943 18.7247 12.5728 20.933C10.0142 26.0982 9.25356 31.9981 10.4161 37.663C10.7662 40.4522 12.0183 43.0425 13.974 45.0234C15.8861 46.8687 18.2264 48.1878 20.7751 48.8568C23.3238 49.5258 25.9973 49.5228 28.5446 48.848C30.8586 48.251 33.0007 47.102 34.7947 45.4954C34.4203 45.4003 34.2322 45.3519 34.0679 45.3035C31.949 44.8142 29.9486 43.8941 28.1859 42.5982C26.4232 41.3023 24.9346 39.6571 23.8088 37.761C22.683 35.865 21.9432 33.7568 21.6335 31.5624C21.3239 29.3681 21.4507 27.1325 22.0065 24.9893C22.165 24.4423 22.3608 23.9073 22.5927 23.3882C22.5927 23.3882 23.3653 23.4591 24.0684 23.6026C27.872 24.215 31.4342 25.8935 34.3579 28.4509C37.2815 31.0084 39.4517 34.3442 40.6263 38.0866C41.0482 39.2813 41.1346 39.3298 42.0783 38.5413C44.8343 36.1707 46.7016 32.9 47.3634 29.2842C48.0252 25.6684 47.4407 21.9303 45.7091 18.7043C42.379 12.852 37.0148 8.49101 30.6808 6.48669C24.3468 4.48237 17.506 4.98116 11.5156 7.8841C10.8379 8.19533 9.3131 8.84025 9.3131 8.84025C9.3131 8.84025 9.17247 9.19816 8.93867 9.65289C5.65143 14.8075 4.19696 20.9571 4.81823 27.0745C4.93907 29.1046 5.36536 31.1037 6.08215 33.0016C6.17533 32.858 6.27021 32.8096 6.27021 32.7629C6.54723 28.1775 7.73465 23.6974 9.76038 19.5947C10.9988 17.0328 11.3614 14.1215 10.7905 11.3249C10.721 10.9894 10.5804 10.2736 10.5804 10.2736C10.864 10.2117 11.1393 10.1153 11.4004 9.98659C13.6307 8.61585 16.2325 8.00993 18.8247 8.25757C22.2674 8.66389 25.3357 9.93126 26.9046 13.3478C27.6939 15.6002 29.11 17.5687 30.9792 19.0121L31.4011 19.37C31.2952 19.5172 31.1594 19.6392 31.003 19.7279C29.3579 20.5892 27.4846 20.8863 25.661 20.5751V20.5734ZM24.6546 29.3205C24.5884 31.4807 25.1166 33.6167 26.1794 35.4862C28.4751 39.4543 31.6366 41.9873 36.4144 41.7244C36.9009 41.6938 37.3812 41.5973 37.8427 41.4374C37.8935 40.9101 37.862 40.3779 37.7495 39.8606C37.0883 37.0796 35.7628 34.5089 33.8911 32.378C32.0195 30.2471 29.6599 28.6223 27.0232 27.6485C26.3509 27.3462 25.6263 27.184 24.8918 27.1713C24.7378 27.8776 24.6582 28.5987 24.6546 29.3222V29.3205Z" fill="white"/>
<path d="M23.9467 14.5274C23.954 14.6968 23.927 14.866 23.8674 15.0243C23.8079 15.1827 23.717 15.3268 23.6005 15.4478C23.484 15.5688 23.3443 15.664 23.1902 15.7276C23.0361 15.7911 22.8708 15.8216 22.7046 15.8172C22.5348 15.825 22.3652 15.7978 22.2059 15.7372C22.0466 15.6766 21.9009 15.5839 21.7774 15.4646C21.654 15.3453 21.5554 15.2019 21.4875 15.0429C21.4196 14.8838 21.3838 14.7125 21.3822 14.539C21.3806 14.3656 21.4133 14.1936 21.4782 14.0333C21.5432 13.873 21.6392 13.7277 21.7604 13.6061C21.8816 13.4845 22.0256 13.389 22.1837 13.3254C22.3419 13.2617 22.5109 13.2313 22.6809 13.2358C23.4841 13.2375 23.8586 13.7562 23.9467 14.5274Z" fill="white"/>
<path d="M93.8298 25.0823H93.8992C94.4069 24.2388 95.1205 23.5442 95.9702 23.0665C96.8199 22.5889 97.7765 22.3445 98.7465 22.3574C99.5343 22.3678 100.313 22.5297 101.042 22.8346L100.365 28.1168C99.6907 27.6379 98.8899 27.3798 98.0688 27.3768C94.2042 27.3768 93.8061 30.8659 93.8061 33.947V42.9103H88.2387V23.0266H93.8128V25.0823H93.8298Z" fill="white"/>
<path d="M121.166 42.9358H115.687V41.1186H115.617C114.971 41.9057 114.16 42.5354 113.244 42.9614C112.328 43.3874 111.331 43.599 110.325 43.5807C104.61 43.5807 101.355 38.2744 101.355 32.8729C101.355 27.5908 104.657 22.3812 110.255 22.3812C111.285 22.3748 112.303 22.5957 113.241 23.0288C114.179 23.4618 115.014 24.0968 115.689 24.89V23.0262H121.17V42.9341L121.166 42.9358ZM116.253 32.9697C116.341 31.6071 115.902 30.2635 115.031 29.2269C114.16 28.1904 112.925 27.5435 111.592 27.4248C108.735 27.4248 106.978 30.2932 106.978 32.9697C106.978 35.6463 108.735 38.5631 111.592 38.5631C114.448 38.5631 116.248 35.6463 116.248 32.968L116.253 32.9697Z" fill="white"/>
<path d="M142.572 42.9358H137.093V41.1186H137.023C136.377 41.9057 135.566 42.5354 134.65 42.9614C133.734 43.3874 132.736 43.599 131.73 43.5807C126.015 43.5807 122.761 38.2744 122.761 32.8729C122.761 27.5908 126.063 22.3812 131.661 22.3812C132.69 22.3748 133.709 22.5957 134.647 23.0288C135.584 23.4618 136.419 24.0968 137.094 24.89V23.0262H142.575V42.9341L142.572 42.9358ZM137.658 32.9697C137.747 31.607 137.308 30.2631 136.437 29.2265C135.566 28.1899 134.331 27.543 132.998 27.4248C130.141 27.4248 128.384 30.2932 128.384 32.9697C128.384 35.6463 130.141 38.5631 132.998 38.5631C135.854 38.5631 137.653 35.6463 137.653 32.968L137.658 32.9697Z" fill="white"/>
<path d="M150.042 24.8431H150.113C150.684 24.0248 151.451 23.3691 152.341 22.9382C153.23 22.5073 154.213 22.3155 155.196 22.3809C160.448 22.3809 161.94 26.1571 161.94 30.7701V42.9355H156.366V32.3885C156.366 29.999 156.483 26.9162 153.345 26.9162C150.043 26.9162 149.996 30.6923 149.996 33.0818V42.9286H144.468V23.0259H150.042V24.8431Z" fill="white"/>
<path d="M183.203 42.9358H177.724V41.1186H177.653C177.006 41.9057 176.195 42.5354 175.279 42.9614C174.364 43.3874 173.366 43.599 172.36 43.5807C166.645 43.5807 163.39 38.2744 163.39 32.8729C163.39 27.5908 166.692 22.3812 172.29 22.3812C173.32 22.3748 174.338 22.5957 175.276 23.0288C176.214 23.4618 177.049 24.0968 177.724 24.89V23.0262H183.205V42.9341L183.203 42.9358ZM178.261 32.9697C178.349 31.607 177.911 30.2631 177.039 29.2265C176.168 28.1899 174.933 27.543 173.6 27.4248C170.743 27.4248 168.987 30.2932 168.987 32.9697C168.987 35.6463 170.743 38.5631 173.6 38.5631C176.456 38.5631 178.261 35.6463 178.261 32.968V32.9697Z" fill="white"/>
<path d="M71.7517 26.1571H86.4341C86.5388 26.5646 86.6091 26.9805 86.6442 27.4003C86.6993 27.8842 86.7304 28.3707 86.7373 28.8579C86.7527 30.7424 86.4602 32.6164 85.8716 34.4028C85.2884 36.1428 84.3461 37.7348 83.1082 39.0712C81.7619 40.5315 80.1247 41.6806 78.3067 42.441C76.2731 43.2644 74.1002 43.6704 71.9126 43.6358C69.8107 43.6459 67.7267 43.2402 65.776 42.441C63.9065 41.6834 62.203 40.5544 60.7644 39.1196C59.3211 37.6733 58.1699 35.9521 57.3759 34.0536C56.5416 32.0339 56.1118 29.8644 56.1118 27.6726C56.1118 25.4809 56.5416 23.3113 57.3759 21.2917C58.1815 19.3996 59.3314 17.6806 60.7644 16.2256C62.207 14.7959 63.9094 13.6676 65.776 12.9042C67.7273 12.107 69.8109 11.7014 71.9126 11.7095C74.1475 11.6702 76.3655 12.1096 78.4236 12.9993C80.2788 13.8275 81.9503 15.0309 83.337 16.5369L79.4487 20.4081C77.99 18.8921 76.1274 17.8463 74.0918 17.4003C72.0562 16.9544 69.9371 17.1279 67.9972 17.8993C66.7861 18.3825 65.6828 19.1098 64.7534 20.0379C63.8239 20.966 63.0872 22.0757 62.5874 23.3008C61.4964 26.0749 61.4964 29.1717 62.5874 31.9459C63.0983 33.1902 63.8557 34.3133 64.812 35.2448C65.7428 36.1568 66.8415 36.8714 68.0446 37.3473C69.2966 37.8521 70.6326 38.104 71.9787 38.0891C73.3527 38.1242 74.7205 37.8894 76.0076 37.3975C77.0425 36.9662 77.9942 36.3509 78.8184 35.5803C79.411 35.0276 79.9026 34.3719 80.2704 33.6438C80.6944 32.8129 81.0094 31.9287 81.2073 31.0139H71.7466L71.7517 26.1571Z" fill="white"/>
</svg>
