<svg width="42" height="40" viewBox="0 0 42 40" fill="none" xmlns="http://www.w3.org/2000/svg">
<path d="M38.6562 16.0938H37.875V12.5781C37.875 10.8548 36.4727 9.45312 34.75 9.45312C34.1476 9.45312 33.5842 9.62433 33.1069 9.92096C32.7874 8.53516 31.5429 7.5 30.0625 7.5H30.0616C28.3392 7.5 26.9366 8.90167 26.9366 10.625V16.0938H15.0634V10.625C15.0634 8.90167 13.6608 7.5 11.9375 7.5C10.4571 7.5 9.21259 8.53516 8.89307 9.92096C8.41577 9.62433 7.85242 9.45312 7.25 9.45312C5.52728 9.45312 4.125 10.8548 4.125 12.5781V16.0938H3.34375C2.05164 16.0938 1 17.1454 1 18.4375V21.5625C1 22.8546 2.05164 23.9062 3.34375 23.9062H4.125V27.4219C4.125 29.1452 5.52728 30.5469 7.25 30.5469C7.85242 30.5469 8.41577 30.3757 8.89307 30.079C9.21259 31.4648 10.4571 32.5 11.9375 32.5H11.9384C13.6608 32.5 15.0634 31.0983 15.0634 29.375V23.9062H26.9366V29.375C26.9366 31.0983 28.3392 32.5 30.0625 32.5C31.5429 32.5 32.7874 31.4648 33.1069 30.079C33.5842 30.3757 34.1476 30.5469 34.75 30.5469C36.4727 30.5469 37.875 29.1452 37.875 27.4219V23.9062H38.6562C39.9484 23.9062 41 22.8546 41 21.5625V18.4375C41 17.1454 39.9484 16.0938 38.6562 16.0938ZM4.125 22.3438H3.34375C2.91315 22.3438 2.5625 21.9931 2.5625 21.5625V18.4375C2.5625 18.0069 2.91315 17.6562 3.34375 17.6562H4.125V22.3438ZM8.8125 27.4219C8.8125 27.8531 8.63763 28.2437 8.35474 28.5266C8.07184 28.8095 7.68121 28.9844 7.25 28.9844C6.38818 28.9844 5.6875 28.2837 5.6875 27.4219V12.5781C5.6875 11.7163 6.38818 11.0156 7.25 11.0156C8.11182 11.0156 8.8125 11.7163 8.8125 12.5781V27.4219ZM13.5009 29.375C13.5009 30.2368 12.7993 30.9375 11.9384 30.9375H11.9375C11.0766 30.9375 10.375 30.2368 10.375 29.375V10.625C10.375 9.76318 11.0766 9.0625 11.9384 9.0625C12.7993 9.0625 13.5009 9.76318 13.5009 10.625V29.375ZM26.932 19.2188H21.4688C21.0375 19.2188 20.6875 19.5688 20.6875 20C20.6875 20.4312 21.0375 20.7812 21.4688 20.7812H26.932V22.3438H15.0594V17.6562H26.932V19.2188ZM31.625 29.375C31.625 30.2368 30.9234 30.9375 30.0616 30.9375C29.2007 30.9375 28.4991 30.2368 28.4991 29.375V20.04C28.4985 20.0571 28.4969 20.0742 28.4945 20.0906V19.9094C28.4969 19.9258 28.4985 19.9429 28.4991 19.96V10.625C28.4991 9.76318 29.2007 9.0625 30.0616 9.0625H30.0625C30.9234 9.0625 31.625 9.76318 31.625 10.625V29.375ZM36.3125 27.4219C36.3125 28.2837 35.6118 28.9844 34.75 28.9844C33.8882 28.9844 33.1875 28.2837 33.1875 27.4219V12.5781C33.1875 11.7163 33.8882 11.0156 34.75 11.0156C35.6118 11.0156 36.3125 11.7163 36.3125 12.5781V27.4219ZM39.4375 21.5625C39.4375 21.9931 39.0869 22.3438 38.6562 22.3438H37.875V17.6562H38.6562C39.0869 17.6562 39.4375 18.0069 39.4375 18.4375V21.5625Z" fill="#37474F"/>
<path d="M18.3453 20.7812C17.9138 20.7812 17.5637 20.4315 17.5637 20C17.5637 19.5685 17.9131 19.2188 18.3447 19.2188H18.3453C18.7768 19.2188 19.1265 19.5685 19.1265 20C19.1265 20.4315 18.7768 20.7812 18.3453 20.7812Z" fill="#37474F"/>
</svg>
