<svg width="40" height="31" viewBox="0 0 40 31" fill="none" xmlns="http://www.w3.org/2000/svg">
<path d="M9.2699 21.952V14.809" stroke="#37474F"/>
<path d="M9.37695 14.969V7.00403" stroke="#37474F"/>
<path d="M9.37695 14.468C11.6722 14.468 13.5329 11.565 13.5329 7.984C13.5329 4.40299 11.6722 1.5 9.37695 1.5C7.08165 1.5 5.22095 4.40299 5.22095 7.984C5.22095 11.565 7.08165 14.468 9.37695 14.468Z" stroke="#37474F"/>
<path d="M9.29895 10.536L11.668 8.349" stroke="#37474F"/>
<path d="M9.29894 10.536L7.11194 8.349" stroke="#37474F"/>
<path d="M35.182 23.197V17.223" stroke="#37474F"/>
<path d="M35.271 17.356V10.696" stroke="#37474F"/>
<path d="M35.271 16.857C37.1454 16.857 38.665 14.4658 38.665 11.516C38.665 8.5663 37.1454 6.17505 35.271 6.17505C33.3965 6.17505 31.877 8.5663 31.877 11.516C31.877 14.4658 33.3965 16.857 35.271 16.857Z" stroke="#37474F"/>
<path d="M35.205 13.65L37.186 11.821" stroke="#37474F"/>
<path d="M35.206 13.65L33.377 11.821" stroke="#37474F"/>
<path d="M38.757 23.513L27.789 21.041C27.2984 20.9303 26.7897 20.9265 26.2976 21.0301C25.8054 21.1336 25.3414 21.342 24.937 21.641L23.537 22.674C23.0483 23.0356 22.662 23.5181 22.416 24.074L22.33 24.267C22.1373 24.703 21.822 25.0737 21.4226 25.3338C21.0231 25.594 20.5567 25.7325 20.08 25.7325C19.6033 25.7325 19.1369 25.594 18.7374 25.3338C18.338 25.0737 18.0227 24.703 17.83 24.267L17.744 24.074C17.4978 23.5182 17.1116 23.0358 16.623 22.674L15.223 21.642C14.8186 21.343 14.3546 21.1346 13.8624 21.0311C13.3703 20.9275 12.8616 20.9313 12.371 21.042L1.407 23.513C1.29123 23.539 1.18779 23.6037 1.11378 23.6964C1.03977 23.7892 0.999633 23.9044 1 24.023V29.968C1 30.1065 1.055 30.2392 1.15289 30.3371C1.25079 30.435 1.38356 30.49 1.522 30.49H38.642C38.7106 30.4902 38.7785 30.4767 38.8419 30.4506C38.9053 30.4244 38.9629 30.3859 39.0114 30.3374C39.0599 30.2889 39.0984 30.2313 39.1245 30.1679C39.1507 30.1045 39.1641 30.0366 39.164 29.968V24.023C39.1644 23.9044 39.1242 23.7892 39.0502 23.6964C38.9762 23.6037 38.8728 23.539 38.757 23.513ZM38.12 29.446H2.044V24.441L12.606 22.058C12.95 21.9805 13.3066 21.9778 13.6517 22.0503C13.9968 22.1228 14.3223 22.2687 14.606 22.478L16.006 23.511C16.3485 23.7639 16.6197 24.1012 16.793 24.49L16.879 24.683C17.1535 25.3027 17.602 25.8293 18.1701 26.1989C18.7381 26.5685 19.4013 26.7653 20.079 26.7653C20.7567 26.7653 21.4199 26.5685 21.9879 26.1989C22.556 25.8293 23.0045 25.3027 23.279 24.683L23.365 24.49C23.5381 24.1008 23.8093 23.7631 24.152 23.51L25.552 22.477C25.8358 22.2677 26.1612 22.1219 26.5063 22.0494C26.8514 21.9769 27.208 21.9795 27.552 22.057L38.121 24.441L38.12 29.446Z" fill="#37474F"/>
</svg>
