<svg width="77" height="77" viewBox="0 0 77 77" fill="none" xmlns="http://www.w3.org/2000/svg">
<circle opacity="0.05" cx="38.5" cy="38.5" r="38.5" fill="#E85451"/>
<circle opacity="0.1" cx="38.5" cy="38.5" r="29.5" fill="#E85451"/>
<path d="M48.4945 40.3546L47.5725 40.8864L48.4969 41.4197C48.643 41.4924 48.6962 41.7309 48.6303 41.8619L48.4553 42.1265C48.3874 42.2288 48.2875 42.285 48.1743 42.285C48.1218 42.285 48.0679 42.2723 48.0124 42.2442L47.1253 41.712V42.7396C47.1253 42.9256 46.9905 43.0605 46.8052 43.0605H46.5101C46.3248 43.0605 46.19 42.9256 46.19 42.7396V41.712L45.3074 42.2414C45.2464 42.2823 45.1801 42.3035 45.116 42.3035C44.9969 42.3035 44.8974 42.2318 44.8528 42.1155L44.6915 41.874C44.6301 41.7813 44.6133 41.6815 44.6438 41.5926C44.672 41.512 44.7344 41.4499 44.8209 41.4179L45.7429 40.8868L44.8068 40.3457C44.6312 40.2287 44.6188 40.0427 44.6847 39.9102L44.8604 39.6457C44.9602 39.4957 45.1283 39.4395 45.303 39.528L46.19 40.0602V39.0325C46.19 38.8466 46.3249 38.7124 46.5102 38.7124H46.8052C46.9905 38.7124 47.1254 38.8466 47.1254 39.0325V40.0602L48.0079 39.5307C48.069 39.4899 48.1352 39.4683 48.1994 39.4683C48.3184 39.4683 48.418 39.54 48.4626 39.6567L48.6238 39.8982C48.6852 39.9909 48.7021 40.0907 48.6712 40.1799C48.6434 40.2606 48.5809 40.322 48.4945 40.3546L48.4945 40.3546Z" fill="#E85451"/>
<path d="M41.2897 40.2704L40.3684 40.8022L41.3044 41.343C41.4801 41.46 41.4918 41.646 41.4259 41.7787L41.2509 42.043C41.151 42.1936 40.9819 42.2492 40.8082 42.1606L39.9212 41.6288V42.6564C39.9212 42.8417 39.7871 42.9766 39.6011 42.9766H39.306C39.12 42.9766 38.9859 42.8417 38.9859 42.6564V41.6288L38.1033 42.1576C38.0423 42.1984 37.976 42.22 37.9115 42.22C37.7931 42.22 37.6936 42.1483 37.6483 42.032L37.4874 41.7901C37.426 41.6981 37.4092 41.5983 37.4397 41.5087C37.4679 41.427 37.5317 41.3649 37.6192 41.3337L38.4873 40.8822L37.5595 40.3465C37.3838 40.2295 37.3715 40.0435 37.4381 39.9111L37.6131 39.6466C37.7129 39.4966 37.881 39.4403 38.0557 39.5289L38.9427 40.0611V39.0334L38.9461 39.007C39.0062 38.7665 39.1369 38.6282 39.3054 38.6282H39.6005C39.7865 38.6282 39.9206 38.763 39.9206 38.9483V39.976L40.8032 39.4472C40.8642 39.4064 40.9305 39.3848 40.995 39.3848C41.1133 39.3848 41.2129 39.4565 41.2581 39.5731L41.4184 39.8147C41.4798 39.9073 41.497 40.0072 41.4664 40.096C41.4393 40.1763 41.3769 40.2384 41.2897 40.2704L41.2897 40.2704Z" fill="#E85451"/>
<path d="M34.1307 42.1265C34.0628 42.2287 33.9629 42.285 33.8497 42.285C33.7972 42.285 33.7433 42.2723 33.6877 42.2442L32.8007 41.712V42.7396C32.8007 42.9256 32.6666 43.0605 32.4806 43.0605H32.1855C32.0002 43.0605 31.8654 42.9256 31.8654 42.7396V41.712L30.9828 42.2414C30.9218 42.2823 30.8555 42.3035 30.7914 42.3035C30.6723 42.3035 30.5728 42.2318 30.5282 42.1155L30.3669 41.8739C30.3058 41.7813 30.289 41.6815 30.3196 41.5922C30.347 41.5126 30.4091 41.4512 30.4942 41.4186L31.3404 40.8899L30.3975 40.3457C30.2218 40.2287 30.2095 40.0427 30.276 39.9102L30.451 39.6457C30.5509 39.4957 30.7197 39.4395 30.8937 39.528L31.78 40.0602V39.0325C31.78 38.8466 31.9148 38.7124 32.1008 38.7124H32.3959C32.5812 38.7124 32.716 38.8466 32.716 39.0325V40.0602L33.5986 39.5307C33.6596 39.4899 33.7259 39.4683 33.79 39.4683C33.9091 39.4683 34.0086 39.54 34.0532 39.6567L34.2145 39.8982C34.2759 39.9909 34.2927 40.0907 34.2622 40.1799C34.234 40.2606 34.1712 40.322 34.0851 40.3539L33.1638 40.8858L34.0793 41.4135C34.2142 41.4454 34.314 41.5284 34.347 41.6372C34.373 41.7237 34.3528 41.8153 34.2945 41.8808L34.1307 42.1265Z" fill="#E85451"/>
<path d="M50.6 28.4001V25.5001C50.6 21.3559 48.389 17.5264 44.8 15.4545C41.211 13.382 36.789 13.382 33.2 15.4545C29.611 17.5266 27.4 21.3561 27.4 25.5001V28.4001C26.2461 28.4001 25.1399 28.8584 24.3239 29.674C23.5083 30.4899 23.05 31.5962 23.05 32.7501V50.1501C23.05 51.3039 23.5083 52.4102 24.3239 53.2261C25.1399 54.0418 26.2461 54.5001 27.4 54.5001H50.6C51.7539 54.5001 52.8601 54.0418 53.6761 53.2261C54.4917 52.4102 54.95 51.3039 54.95 50.1501V32.7501C54.95 31.5962 54.4917 30.49 53.6761 29.674C52.8601 28.8584 51.7539 28.4001 50.6 28.4001ZM30.3 25.5001C30.3 22.3919 31.9581 19.5198 34.65 17.9655C37.3419 16.4116 40.6581 16.4116 43.35 17.9655C46.0419 19.5198 47.7 22.3919 47.7 25.5001V28.4001H30.3V25.5001ZM52.05 50.1501C52.05 50.5346 51.8972 50.9035 51.6254 51.1754C51.3535 51.4473 50.9845 51.6001 50.6 51.6001H27.4C27.0155 51.6001 26.6465 51.4473 26.3746 51.1754C26.1028 50.9035 25.95 50.5346 25.95 50.1501V32.7501C25.95 32.3656 26.1028 31.9966 26.3746 31.7247C26.6465 31.4528 27.0155 31.3001 27.4 31.3001H50.6C50.9845 31.3001 51.3535 31.4528 51.6254 31.7247C51.8972 31.9966 52.05 32.3656 52.05 32.7501V50.1501Z" fill="#E85451"/>
</svg>
