<svg width="12" height="15" viewBox="0 0 12 15" fill="none" xmlns="http://www.w3.org/2000/svg">
<path d="M9.5528 5.88462H9.12734V4.26259C9.12734 3.27874 8.80604 2.45221 8.16343 1.78301C7.52082 1.11381 6.70316 0.779211 5.71044 0.779211C5.05454 0.779211 4.46511 0.93654 3.94216 1.2512C3.41921 1.56585 3.01813 1.98687 2.73893 2.51425C2.45973 3.04164 2.32013 3.62442 2.32013 4.26259V5.88462H1.89468C1.42491 5.88462 1.02383 6.05082 0.691447 6.3832C0.359063 6.71558 0.192871 7.11666 0.192871 7.58643V12.6918C0.192871 13.1616 0.359063 13.5627 0.691447 13.8951C1.02383 14.2275 1.42491 14.3936 1.89468 14.3936H9.5528C10.0226 14.3936 10.4236 14.2275 10.756 13.8951C11.0884 13.5627 11.2546 13.1616 11.2546 12.6918V7.58643C11.2546 7.11666 11.0884 6.71558 10.756 6.3832C10.4236 6.05082 10.0226 5.88462 9.5528 5.88462ZM3.17103 4.26259C3.17103 3.51805 3.40591 2.89317 3.87568 2.38795C4.34545 1.88272 4.95704 1.63011 5.71044 1.63011C6.46384 1.63011 7.07986 1.88051 7.55849 2.3813C8.03713 2.88209 8.27644 3.50919 8.27644 4.26259V5.88462H3.17103V4.26259ZM10.4037 12.6918C10.4037 12.8425 10.366 12.9843 10.2907 13.1173C10.2153 13.2502 10.1112 13.3544 9.97825 13.4297C9.84529 13.5051 9.70348 13.5427 9.5528 13.5427H1.89468C1.66422 13.5427 1.46479 13.4585 1.29638 13.2901C1.12798 13.1217 1.04377 12.9223 1.04377 12.6918V7.58643C1.04377 7.35598 1.12798 7.15655 1.29638 6.98814C1.46479 6.81973 1.66422 6.73553 1.89468 6.73553H9.5528C9.78325 6.73553 9.98268 6.81973 10.1511 6.98814C10.3195 7.15655 10.4037 7.35598 10.4037 7.58643V12.6918ZM6.32867 8.68329C6.32867 8.68329 6.28768 8.6423 6.20569 8.56031C6.1237 8.47832 5.96305 8.43733 5.72374 8.43733C5.48442 8.43733 5.28277 8.51932 5.1188 8.68329C4.95482 8.84727 4.87283 9.04892 4.87283 9.28823C4.87283 9.60732 5.01465 9.85107 5.29828 10.0195V11.4155C5.29828 11.5307 5.34039 11.6304 5.42459 11.7146C5.50879 11.7988 5.60851 11.8409 5.72374 11.8409C5.83896 11.8409 5.93868 11.7988 6.02288 11.7146C6.10708 11.6304 6.14919 11.5307 6.14919 11.4155V10.0195C6.43282 9.85107 6.57464 9.60732 6.57464 9.28823C6.57464 9.04892 6.49265 8.84727 6.32867 8.68329Z" fill="#232323"/>
</svg>
