<svg width="16" height="15" viewBox="0 0 16 15" fill="none" xmlns="http://www.w3.org/2000/svg">
<g clip-path="url(#clip0_544_1681)">
<path d="M1.17948 15H15.8045C15.8292 15.0001 15.8536 14.9952 15.8764 14.9858C15.8992 14.9764 15.9199 14.9626 15.9373 14.9451C15.9548 14.9277 15.9686 14.907 15.978 14.8842C15.9874 14.8614 15.9922 14.837 15.9922 14.8123V13.8682C15.9922 13.8436 15.9874 13.8191 15.978 13.7963C15.9686 13.7735 15.9548 13.7528 15.9373 13.7354C15.9199 13.718 15.8992 13.7041 15.8764 13.6947C15.8536 13.6853 15.8292 13.6805 15.8045 13.6805H15.0836V8.06246H15.3441C15.3688 8.06251 15.3932 8.05769 15.416 8.04827C15.4388 8.03886 15.4595 8.02504 15.4769 8.0076C15.4944 7.99016 15.5082 7.96945 15.5176 7.94666C15.527 7.92387 15.5318 7.89944 15.5318 7.87478V6.67167C15.5317 6.64707 15.5268 6.62273 15.5174 6.60002C15.5079 6.57732 15.4941 6.5567 15.4766 6.53934C15.4592 6.52199 15.4385 6.50823 15.4158 6.49887C15.3931 6.4895 15.3687 6.4847 15.3441 6.48476H15.0836V1.3145H15.3372C15.3619 1.31455 15.3863 1.30973 15.4091 1.30031C15.4319 1.2909 15.4526 1.27708 15.47 1.25964C15.4875 1.2422 15.5013 1.22149 15.5107 1.1987C15.5201 1.17591 15.525 1.15148 15.5249 1.12682V0.187677C15.525 0.163017 15.5201 0.138589 15.5107 0.115797C15.5013 0.0930041 15.4875 0.0722947 15.47 0.0548573C15.4526 0.0374199 15.4319 0.0235978 15.4091 0.014184C15.3863 0.00477018 15.3619 -4.98864e-05 15.3372 3.89278e-07H6.0091C5.98444 -4.98864e-05 5.96001 0.00477018 5.93722 0.014184C5.91443 0.0235978 5.89372 0.0374199 5.87628 0.0548573C5.85884 0.0722947 5.84502 0.0930041 5.83561 0.115797C5.82619 0.138589 5.82137 0.163017 5.82142 0.187677V1.1272C5.82137 1.15186 5.82619 1.17629 5.83561 1.19908C5.84502 1.22188 5.85884 1.24259 5.87628 1.26002C5.89372 1.27746 5.91443 1.29128 5.93722 1.3007C5.96001 1.31011 5.98444 1.31493 6.0091 1.31488H6.26315V5.42812C6.11433 5.19767 5.90949 5.00874 5.66779 4.87898C5.4261 4.74923 5.15544 4.68289 4.88113 4.68619C4.47076 4.67352 4.07207 4.82389 3.77226 5.10439C3.47246 5.3849 3.29594 5.77272 3.28131 6.18302C3.28134 6.3602 3.31513 6.53575 3.38087 6.70028C3.32918 6.76561 3.28226 6.83457 3.24049 6.90665C3.07373 6.83427 2.89397 6.79663 2.71217 6.79602C2.38712 6.78635 2.07147 6.90582 1.83427 7.12828C1.59708 7.35075 1.45766 7.65811 1.4465 7.98311C1.4464 8.11531 1.47005 8.24645 1.51631 8.37029C1.33756 8.60062 1.24005 8.88362 1.23899 9.17517C1.23891 9.33836 1.26998 9.50006 1.33054 9.6516C1.12522 9.91695 1.01325 10.2427 1.01202 10.5782C1.02456 10.9826 1.18659 11.3681 1.46678 11.6601C1.74698 11.952 2.12546 12.1298 2.52907 12.1589L2.53365 13.6802H1.17986C1.1552 13.6801 1.13078 13.6849 1.10798 13.6943C1.08519 13.7038 1.06448 13.7176 1.04704 13.735C1.02961 13.7525 1.01579 13.7732 1.00637 13.796C0.996958 13.8188 0.992138 13.8432 0.992188 13.8678V14.8123C0.992138 14.837 0.996945 14.8613 1.00634 14.8841C1.01573 14.9069 1.02951 14.9276 1.04691 14.945C1.06431 14.9624 1.08497 14.9763 1.10772 14.9857C1.13047 14.9951 1.15485 15 1.17948 15ZM14.7086 13.6809H6.63774V10.7876C6.63688 10.7818 6.63573 10.7761 6.63431 10.7704C6.89552 10.4428 7.04158 10.0383 7.04992 9.61937C7.05826 9.20045 6.92842 8.79044 6.68046 8.45269C6.66215 8.42726 6.64346 8.40246 6.62439 8.3783C6.66724 8.27642 6.6997 8.17048 6.72128 8.06208H14.7086V13.6809ZM5.07987 13.6809L5.07339 11.5993C5.5059 11.565 5.91918 11.406 6.26315 11.1416V13.6794H5.08063L5.07987 13.6809ZM7.02644 7.46968L6.5687 6.85934L7.02644 7.46968ZM6.19639 0.374972H15.1496V0.939527H6.19639V0.374972ZM14.7082 1.3145V6.48476H6.63774V1.3145H14.7082ZM4.88075 5.06154C5.18248 5.04972 5.4773 5.15378 5.70476 5.35238C5.93222 5.55097 6.07509 5.82906 6.10408 6.12962C6.10408 6.14793 6.10408 6.16777 6.10408 6.18493C6.10389 6.34668 6.0656 6.50611 5.99232 6.65031C5.97529 6.68427 5.96901 6.72261 5.97433 6.76023C5.97964 6.79785 5.9963 6.83296 6.02207 6.86087C6.24728 7.10123 6.37367 7.41762 6.37606 7.74699C6.37567 7.94807 6.32742 8.14616 6.2353 8.3249C6.21822 8.35866 6.21173 8.39679 6.2167 8.4343C6.22167 8.47181 6.23786 8.50694 6.26315 8.53508C6.30288 8.57919 6.34019 8.62541 6.37492 8.67355C6.56807 8.93791 6.6725 9.25668 6.67321 9.58409C6.65666 10.0073 6.48365 10.4094 6.18769 10.7124C5.89172 11.0154 5.49384 11.1978 5.0711 11.2243L5.06843 10.371L5.69936 9.7401C5.73477 9.70469 5.75466 9.65667 5.75466 9.60659C5.75466 9.55652 5.73477 9.50849 5.69936 9.47308C5.66395 9.43767 5.61592 9.41778 5.56585 9.41778C5.51577 9.41778 5.46775 9.43767 5.43234 9.47308L5.065 9.84043L5.06347 9.13168C5.06342 9.10708 5.05853 9.08274 5.04907 9.06003C5.03961 9.03733 5.02577 9.01671 5.00834 8.99935C4.99092 8.982 4.97024 8.96824 4.9475 8.95888C4.92475 8.94951 4.90039 8.94472 4.87579 8.94477C4.82608 8.94497 4.77849 8.96488 4.74344 9.00014C4.7084 9.0354 4.68878 9.08311 4.68888 9.13282L4.69117 9.81525L4.34786 9.47194C4.31245 9.43653 4.26442 9.41664 4.21435 9.41664C4.16427 9.41664 4.11625 9.43653 4.08084 9.47194C4.04543 9.50735 4.02554 9.55537 4.02554 9.60545C4.02554 9.65552 4.04543 9.70355 4.08084 9.73896L4.69117 10.3493L4.69384 11.2266C4.26969 11.2019 3.86991 11.0203 3.57225 10.7171C3.27459 10.4139 3.10032 10.0109 3.08333 9.58638C3.08579 9.19784 3.23184 8.82394 3.4934 8.53661C3.51868 8.50846 3.53487 8.47333 3.53984 8.43583C3.54481 8.39832 3.53833 8.36018 3.52124 8.32642C3.42996 8.1458 3.38326 7.94594 3.38506 7.74356C3.38742 7.41418 3.51381 7.09778 3.73905 6.85744C3.76473 6.82947 3.78132 6.79437 3.78663 6.75678C3.79194 6.71918 3.78573 6.68086 3.76881 6.64687C3.69566 6.50263 3.65738 6.34323 3.65704 6.1815C3.67209 5.87117 3.80913 5.57935 4.03832 5.36958C4.26752 5.15982 4.57031 5.0491 4.88075 5.06154ZM1.38585 10.5789C1.38771 10.2933 1.49519 10.0184 1.68758 9.80724C1.71281 9.77905 1.72893 9.7439 1.73383 9.7064C1.73873 9.66889 1.73218 9.63078 1.71505 9.59706C1.6481 9.46729 1.61293 9.32347 1.61244 9.17745C1.61428 8.93726 1.70647 8.70657 1.87068 8.53127C1.89641 8.50333 1.91303 8.46822 1.91834 8.43062C1.92365 8.39301 1.91741 8.35468 1.90044 8.3207C1.84779 8.21675 1.82023 8.10192 1.81995 7.9854C1.83063 7.75946 1.9304 7.54695 2.0974 7.39439C2.2644 7.24183 2.48504 7.16164 2.71103 7.17138C2.84038 7.17126 2.96843 7.1972 3.08753 7.24767C2.96754 7.61786 2.98515 8.01891 3.13712 8.37716C2.8633 8.71914 2.71326 9.14371 2.71141 9.5818C2.71658 9.93792 2.81671 10.2862 3.00145 10.5907C3.18619 10.8952 3.44885 11.1449 3.76232 11.314C3.54386 11.5714 3.23677 11.7375 2.90176 11.7794L2.89985 11.0123C2.8998 10.9877 2.89491 10.9633 2.88545 10.9406C2.87599 10.9179 2.86215 10.8973 2.84472 10.8799C2.8273 10.8626 2.80662 10.8488 2.78388 10.8395C2.76113 10.8301 2.73677 10.8253 2.71217 10.8253C2.66246 10.8255 2.61487 10.8455 2.57982 10.8807C2.54478 10.916 2.52516 10.9637 2.52526 11.0134L2.52755 11.7794C2.224 11.7518 1.94081 11.6149 1.73075 11.394C1.5207 11.1732 1.39812 10.8835 1.38585 10.5789ZM2.9029 12.1582C3.14131 12.135 3.37227 12.0623 3.581 11.9448C3.78974 11.8273 3.97167 11.6675 4.11517 11.4757C4.30307 11.5424 4.4989 11.5841 4.69765 11.5997L4.70414 13.6809H2.90748L2.9029 12.1582ZM1.36716 14.0559H15.6172V14.625H1.36716V14.0559Z" fill="#7E7E7E"/>
<path d="M12.4961 5.83208H13.4364C13.4611 5.83213 13.4855 5.82731 13.5083 5.8179C13.5311 5.80848 13.5518 5.79466 13.5692 5.77722C13.5867 5.75978 13.6005 5.73908 13.6099 5.71628C13.6193 5.69349 13.6241 5.66906 13.6241 5.6444V4.8483C13.6241 4.76194 13.6071 4.67643 13.574 4.59664C13.541 4.51685 13.4925 4.44436 13.4315 4.38329C13.3704 4.32222 13.2979 4.27378 13.2181 4.24073C13.1383 4.20768 13.0528 4.19067 12.9665 4.19067C12.8801 4.19067 12.7946 4.20768 12.7148 4.24073C12.635 4.27378 12.5625 4.32222 12.5015 4.38329C12.4404 4.44436 12.3919 4.51685 12.3589 4.59664C12.3258 4.67643 12.3088 4.76194 12.3088 4.8483V5.6444C12.3088 5.66903 12.3136 5.69343 12.323 5.71619C12.3324 5.73896 12.3462 5.75965 12.3636 5.77709C12.381 5.79452 12.4016 5.80835 12.4244 5.81778C12.4471 5.82722 12.4715 5.83208 12.4961 5.83208ZM12.6838 4.8483C12.6838 4.81118 12.6911 4.77443 12.7053 4.74013C12.7195 4.70584 12.7403 4.67468 12.7666 4.64843C12.7928 4.62219 12.824 4.60137 12.8583 4.58716C12.8926 4.57296 12.9293 4.56564 12.9665 4.56564C13.0036 4.56564 13.0403 4.57296 13.0746 4.58716C13.1089 4.60137 13.1401 4.62219 13.1663 4.64843C13.1926 4.67468 13.2134 4.70584 13.2276 4.74013C13.2418 4.77443 13.2491 4.81118 13.2491 4.8483V5.45863H12.6834L12.6838 4.8483Z" fill="#7E7E7E"/>
<path d="M10.3123 5.83208H11.2526C11.2772 5.83213 11.3017 5.82731 11.3245 5.8179C11.3473 5.80848 11.368 5.79466 11.3854 5.77722C11.4028 5.75978 11.4167 5.73908 11.4261 5.71628C11.4355 5.69349 11.4403 5.66906 11.4403 5.6444V4.8483C11.4403 4.67389 11.371 4.50662 11.2476 4.38329C11.1243 4.25996 10.957 4.19067 10.7826 4.19067C10.6082 4.19067 10.4409 4.25996 10.3176 4.38329C10.1943 4.50662 10.125 4.67389 10.125 4.8483V5.6444C10.125 5.66903 10.1298 5.69343 10.1391 5.71619C10.1485 5.73896 10.1623 5.75965 10.1797 5.77709C10.1971 5.79452 10.2178 5.80835 10.2405 5.81778C10.2633 5.82722 10.2877 5.83208 10.3123 5.83208ZM10.5 4.8483C10.4986 4.81034 10.5048 4.77248 10.5184 4.73699C10.532 4.7015 10.5526 4.66911 10.5789 4.64176C10.6053 4.6144 10.6369 4.59264 10.6719 4.57778C10.7068 4.56292 10.7444 4.55526 10.7824 4.55526C10.8204 4.55526 10.858 4.56292 10.893 4.57778C10.928 4.59264 10.9596 4.6144 10.9859 4.64176C11.0123 4.66911 11.0329 4.7015 11.0465 4.73699C11.06 4.77248 11.0663 4.81034 11.0649 4.8483V5.45863H10.4996L10.5 4.8483Z" fill="#7E7E7E"/>
<path d="M8.12846 5.83208H9.06875C9.09341 5.83213 9.11783 5.82731 9.14063 5.8179C9.16342 5.80848 9.18413 5.79466 9.20157 5.77722C9.219 5.75978 9.23283 5.73908 9.24224 5.71628C9.25165 5.69349 9.25647 5.66906 9.25642 5.6444V4.8483C9.25642 4.67389 9.18714 4.50662 9.06381 4.38329C8.94048 4.25996 8.77321 4.19067 8.59879 4.19067C8.42438 4.19067 8.25711 4.25996 8.13378 4.38329C8.01045 4.50662 7.94116 4.67389 7.94116 4.8483V5.6444C7.94111 5.66903 7.94592 5.69343 7.95531 5.71619C7.9647 5.73896 7.97849 5.75965 7.99588 5.77709C8.01328 5.79452 8.03395 5.80835 8.05669 5.81778C8.07944 5.82722 8.10383 5.83208 8.12846 5.83208ZM8.31613 4.8483C8.31613 4.81118 8.32345 4.77443 8.33765 4.74013C8.35186 4.70584 8.37267 4.67468 8.39892 4.64843C8.42517 4.62219 8.45633 4.60137 8.49062 4.58716C8.52492 4.57296 8.56167 4.56564 8.59879 4.56564C8.63591 4.56564 8.67267 4.57296 8.70696 4.58716C8.74126 4.60137 8.77242 4.62219 8.79866 4.64843C8.82491 4.67468 8.84573 4.70584 8.85993 4.74013C8.87414 4.77443 8.88145 4.81118 8.88145 4.8483V5.45863H8.31575L8.31613 4.8483Z" fill="#7E7E7E"/>
<path d="M12.4961 3.52654H13.4364C13.4611 3.52659 13.4855 3.52177 13.5083 3.51235C13.5311 3.50294 13.5518 3.48912 13.5692 3.47168C13.5867 3.45424 13.6005 3.43353 13.6099 3.41074C13.6193 3.38795 13.6241 3.36352 13.6241 3.33886V2.54276C13.6241 2.4564 13.6071 2.37088 13.574 2.2911C13.541 2.21131 13.4925 2.13881 13.4315 2.07775C13.3704 2.01668 13.2979 1.96824 13.2181 1.93519C13.1383 1.90214 13.0528 1.88513 12.9665 1.88513C12.8801 1.88513 12.7946 1.90214 12.7148 1.93519C12.635 1.96824 12.5625 2.01668 12.5015 2.07775C12.4404 2.13881 12.3919 2.21131 12.3589 2.2911C12.3258 2.37088 12.3088 2.4564 12.3088 2.54276V3.33886C12.3088 3.38857 12.3286 3.43625 12.3637 3.47143C12.3988 3.50662 12.4464 3.52644 12.4961 3.52654ZM12.6838 2.54276C12.6838 2.50564 12.6911 2.46889 12.7053 2.43459C12.7195 2.4003 12.7403 2.36914 12.7666 2.34289C12.7928 2.31664 12.824 2.29582 12.8583 2.28162C12.8926 2.26741 12.9293 2.2601 12.9665 2.2601C13.0036 2.2601 13.0403 2.26741 13.0746 2.28162C13.1089 2.29582 13.1401 2.31664 13.1663 2.34289C13.1926 2.36914 13.2134 2.4003 13.2276 2.43459C13.2418 2.46889 13.2491 2.50564 13.2491 2.54276V3.15309H12.6834L12.6838 2.54276Z" fill="#7E7E7E"/>
<path d="M10.3123 3.52654H11.2526C11.2772 3.52659 11.3017 3.52177 11.3245 3.51235C11.3473 3.50294 11.368 3.48912 11.3854 3.47168C11.4028 3.45424 11.4167 3.43353 11.4261 3.41074C11.4355 3.38795 11.4403 3.36352 11.4403 3.33886V2.54276C11.4403 2.36835 11.371 2.20108 11.2476 2.07775C11.1243 1.95442 10.957 1.88513 10.7826 1.88513C10.6082 1.88513 10.4409 1.95442 10.3176 2.07775C10.1943 2.20108 10.125 2.36835 10.125 2.54276V3.33886C10.125 3.36349 10.1298 3.38788 10.1391 3.41065C10.1485 3.43342 10.1623 3.45411 10.1797 3.47155C10.1971 3.48898 10.2178 3.50281 10.2405 3.51224C10.2633 3.52168 10.2877 3.52654 10.3123 3.52654ZM10.5 2.54276C10.4986 2.50479 10.5048 2.46693 10.5184 2.43145C10.532 2.39596 10.5526 2.36357 10.5789 2.33621C10.6053 2.30886 10.6369 2.2871 10.6719 2.27224C10.7068 2.25738 10.7444 2.24972 10.7824 2.24972C10.8204 2.24972 10.858 2.25738 10.893 2.27224C10.928 2.2871 10.9596 2.30886 10.9859 2.33621C11.0123 2.36357 11.0329 2.39596 11.0465 2.43145C11.06 2.46693 11.0663 2.50479 11.0649 2.54276V3.15309H10.4996L10.5 2.54276Z" fill="#7E7E7E"/>
<path d="M8.12846 3.52654H9.06875C9.09341 3.52659 9.11783 3.52177 9.14063 3.51235C9.16342 3.50294 9.18413 3.48912 9.20157 3.47168C9.219 3.45424 9.23283 3.43353 9.24224 3.41074C9.25165 3.38795 9.25647 3.36352 9.25642 3.33886V2.54276C9.25642 2.36835 9.18714 2.20108 9.06381 2.07775C8.94048 1.95442 8.77321 1.88513 8.59879 1.88513C8.42438 1.88513 8.25711 1.95442 8.13378 2.07775C8.01045 2.20108 7.94116 2.36835 7.94116 2.54276V3.33886C7.94111 3.36349 7.94592 3.38788 7.95531 3.41065C7.9647 3.43342 7.97849 3.45411 7.99588 3.47155C8.01328 3.48898 8.03395 3.50281 8.05669 3.51224C8.07944 3.52168 8.10383 3.52654 8.12846 3.52654ZM8.31613 2.54276C8.31613 2.50564 8.32345 2.46889 8.33765 2.43459C8.35186 2.4003 8.37267 2.36914 8.39892 2.34289C8.42517 2.31664 8.45633 2.29582 8.49062 2.28162C8.52492 2.26741 8.56167 2.2601 8.59879 2.2601C8.63591 2.2601 8.67267 2.26741 8.70696 2.28162C8.74126 2.29582 8.77242 2.31664 8.79866 2.34289C8.82491 2.36914 8.84573 2.4003 8.85993 2.43459C8.87414 2.46889 8.88145 2.50564 8.88145 2.54276V3.15309H8.31575L8.31613 2.54276Z" fill="#7E7E7E"/>
<path d="M12.4961 12.8448H13.4364C13.4611 12.8448 13.4855 12.84 13.5083 12.8306C13.5311 12.8212 13.5518 12.8073 13.5692 12.7899C13.5867 12.7725 13.6005 12.7518 13.6099 12.729C13.6193 12.7062 13.6241 12.6817 13.6241 12.6571V11.8614C13.6241 11.687 13.5548 11.5197 13.4315 11.3964C13.3082 11.273 13.1409 11.2037 12.9665 11.2037C12.7921 11.2037 12.6248 11.273 12.5015 11.3964C12.3781 11.5197 12.3088 11.687 12.3088 11.8614V12.6575C12.3088 12.7071 12.3286 12.7548 12.3637 12.7899C12.3988 12.825 12.4465 12.8448 12.4961 12.8448ZM12.6838 11.861C12.6838 11.8239 12.6911 11.7871 12.7053 11.7528C12.7195 11.7185 12.7403 11.6874 12.7666 11.6611C12.7928 11.6349 12.824 11.614 12.8583 11.5998C12.8926 11.5856 12.9293 11.5783 12.9665 11.5783C13.0036 11.5783 13.0403 11.5856 13.0746 11.5998C13.1089 11.614 13.1401 11.6349 13.1663 11.6611C13.1926 11.6874 13.2134 11.7185 13.2276 11.7528C13.2418 11.7871 13.2491 11.8239 13.2491 11.861V12.4713H12.6834L12.6838 11.861Z" fill="#7E7E7E"/>
<path d="M10.3123 12.8448H11.2526C11.2772 12.8448 11.3017 12.84 11.3245 12.8306C11.3473 12.8212 11.368 12.8073 11.3854 12.7899C11.4028 12.7725 11.4167 12.7518 11.4261 12.729C11.4355 12.7062 11.4403 12.6817 11.4403 12.6571V11.8614C11.4403 11.687 11.371 11.5197 11.2476 11.3964C11.1243 11.273 10.957 11.2037 10.7826 11.2037C10.6082 11.2037 10.4409 11.273 10.3176 11.3964C10.1943 11.5197 10.125 11.687 10.125 11.8614V12.6575C10.125 12.7071 10.1447 12.7548 10.1799 12.7899C10.215 12.825 10.2626 12.8448 10.3123 12.8448ZM10.5 11.861C10.4986 11.823 10.5048 11.7852 10.5184 11.7497C10.532 11.7142 10.5526 11.6818 10.5789 11.6544C10.6053 11.6271 10.6369 11.6053 10.6719 11.5905C10.7068 11.5756 10.7444 11.5679 10.7824 11.5679C10.8204 11.5679 10.858 11.5756 10.893 11.5905C10.928 11.6053 10.9596 11.6271 10.9859 11.6544C11.0123 11.6818 11.0329 11.7142 11.0465 11.7497C11.06 11.7852 11.0663 11.823 11.0649 11.861V12.4713H10.4996L10.5 11.861Z" fill="#7E7E7E"/>
<path d="M8.12846 12.8448H9.06875C9.09341 12.8448 9.11783 12.84 9.14063 12.8306C9.16342 12.8212 9.18413 12.8073 9.20156 12.7899C9.219 12.7725 9.23282 12.7518 9.24224 12.729C9.25165 12.7062 9.25647 12.6817 9.25642 12.6571V11.8614C9.25642 11.687 9.18714 11.5197 9.06381 11.3964C8.94048 11.273 8.77321 11.2037 8.59879 11.2037C8.42438 11.2037 8.25711 11.273 8.13378 11.3964C8.01045 11.5197 7.94116 11.687 7.94116 11.8614V12.6575C7.94116 12.7071 7.96089 12.7548 7.99602 12.7899C8.03114 12.825 8.07878 12.8448 8.12846 12.8448ZM8.31613 11.861C8.31613 11.8239 8.32344 11.7871 8.33765 11.7528C8.35185 11.7185 8.37267 11.6874 8.39892 11.6611C8.42517 11.6349 8.45633 11.614 8.49062 11.5998C8.52492 11.5856 8.56167 11.5783 8.59879 11.5783C8.63591 11.5783 8.67267 11.5856 8.70696 11.5998C8.74126 11.614 8.77242 11.6349 8.79866 11.6611C8.82491 11.6874 8.84573 11.7185 8.85993 11.7528C8.87414 11.7871 8.88145 11.8239 8.88145 11.861V12.4713H8.31575L8.31613 11.861Z" fill="#7E7E7E"/>
<path d="M12.4961 10.5392H13.4364C13.4611 10.5393 13.4855 10.5344 13.5083 10.525C13.5311 10.5156 13.5518 10.5018 13.5692 10.4844C13.5867 10.4669 13.6005 10.4462 13.6099 10.4234C13.6193 10.4006 13.6241 10.3762 13.6241 10.3515V9.55582C13.6241 9.38141 13.5548 9.21414 13.4315 9.09081C13.3082 8.96748 13.1409 8.89819 12.9665 8.89819C12.7921 8.89819 12.6248 8.96748 12.5015 9.09081C12.3781 9.21414 12.3088 9.38141 12.3088 9.55582V10.3519C12.3088 10.4016 12.3286 10.4492 12.3637 10.4844C12.3988 10.5195 12.4465 10.5392 12.4961 10.5392ZM12.6838 9.55544C12.6838 9.51832 12.6911 9.48157 12.7053 9.44727C12.7195 9.41298 12.7403 9.38182 12.7666 9.35557C12.7928 9.32932 12.824 9.3085 12.8583 9.2943C12.8926 9.28009 12.9293 9.27278 12.9665 9.27278C13.0036 9.27278 13.0403 9.28009 13.0746 9.2943C13.1089 9.3085 13.1401 9.32932 13.1663 9.35557C13.1926 9.38182 13.2134 9.41298 13.2276 9.44727C13.2418 9.48157 13.2491 9.51832 13.2491 9.55544V10.1658H12.6834L12.6838 9.55544Z" fill="#7E7E7E"/>
<path d="M10.3123 10.5392H11.2526C11.2772 10.5393 11.3017 10.5344 11.3245 10.525C11.3473 10.5156 11.368 10.5018 11.3854 10.4844C11.4028 10.4669 11.4167 10.4462 11.4261 10.4234C11.4355 10.4006 11.4403 10.3762 11.4403 10.3515V9.55582C11.4403 9.38141 11.371 9.21414 11.2476 9.09081C11.1243 8.96748 10.957 8.89819 10.7826 8.89819C10.6082 8.89819 10.4409 8.96748 10.3176 9.09081C10.1943 9.21414 10.125 9.38141 10.125 9.55582V10.3519C10.125 10.4016 10.1447 10.4492 10.1799 10.4844C10.215 10.5195 10.2626 10.5392 10.3123 10.5392ZM10.5 9.55544C10.4986 9.51747 10.5048 9.47962 10.5184 9.44413C10.532 9.40864 10.5526 9.37625 10.5789 9.3489C10.6053 9.32154 10.6369 9.29978 10.6719 9.28492C10.7068 9.27006 10.7444 9.2624 10.7824 9.2624C10.8204 9.2624 10.858 9.27006 10.893 9.28492C10.928 9.29978 10.9596 9.32154 10.9859 9.3489C11.0123 9.37625 11.0329 9.40864 11.0465 9.44413C11.06 9.47962 11.0663 9.51747 11.0649 9.55544V10.1658H10.4996L10.5 9.55544Z" fill="#7E7E7E"/>
<path d="M8.12846 10.5392H9.06875C9.09341 10.5393 9.11783 10.5344 9.14063 10.525C9.16342 10.5156 9.18413 10.5018 9.20156 10.4844C9.219 10.4669 9.23282 10.4462 9.24224 10.4234C9.25165 10.4006 9.25647 10.3762 9.25642 10.3515V9.55582C9.25642 9.38141 9.18714 9.21414 9.06381 9.09081C8.94048 8.96748 8.77321 8.89819 8.59879 8.89819C8.42438 8.89819 8.25711 8.96748 8.13378 9.09081C8.01045 9.21414 7.94116 9.38141 7.94116 9.55582V10.3519C7.94116 10.4016 7.96089 10.4492 7.99602 10.4844C8.03114 10.5195 8.07878 10.5392 8.12846 10.5392ZM8.31613 9.55544C8.31613 9.51832 8.32344 9.48157 8.33765 9.44727C8.35185 9.41298 8.37267 9.38182 8.39892 9.35557C8.42517 9.32932 8.45633 9.3085 8.49062 9.2943C8.52492 9.28009 8.56167 9.27278 8.59879 9.27278C8.63591 9.27278 8.67267 9.28009 8.70696 9.2943C8.74126 9.3085 8.77242 9.32932 8.79866 9.35557C8.82491 9.38182 8.84573 9.41298 8.85993 9.44727C8.87414 9.48157 8.88145 9.51832 8.88145 9.55544V10.1658H8.31575L8.31613 9.55544Z" fill="#7E7E7E"/>
</g>
<defs>
<clipPath id="clip0_544_1681">
<rect width="15" height="15" fill="white" transform="translate(0.992188)"/>
</clipPath>
</defs>
</svg>
