<svg width="77" height="77" viewBox="0 0 77 77" fill="none" xmlns="http://www.w3.org/2000/svg">
<circle opacity="0.05" cx="38.5" cy="38.5" r="38.5" fill="#E85451"/>
<circle opacity="0.1" cx="38.5" cy="38.5" r="29.5" fill="#E85451"/>
<path d="M50.5998 31.4001V28.5001C50.5998 24.3559 48.3888 20.5264 44.7998 18.4545C41.2108 16.382 36.7888 16.382 33.1998 18.4545C29.6108 20.5266 27.3998 24.3561 27.3998 28.5001V31.4001C26.2459 31.4001 25.1397 31.8584 24.3237 32.674C23.5081 33.4899 23.0498 34.5962 23.0498 35.7501V53.1501C23.0498 54.3039 23.5081 55.4102 24.3237 56.2261C25.1397 57.0418 26.2459 57.5001 27.3998 57.5001H50.5998C51.7537 57.5001 52.8599 57.0418 53.6759 56.2261C54.4915 55.4102 54.9498 54.3039 54.9498 53.1501V35.7501C54.9498 34.5962 54.4915 33.49 53.6759 32.674C52.8599 31.8584 51.7537 31.4001 50.5998 31.4001ZM30.2998 28.5001C30.2998 25.3919 31.9579 22.5198 34.6498 20.9655C37.3417 19.4116 40.6579 19.4116 43.3498 20.9655C46.0417 22.5198 47.6998 25.3919 47.6998 28.5001V31.4001H30.2998V28.5001ZM52.0498 53.1501C52.0498 53.5346 51.897 53.9035 51.6252 54.1754C51.3533 54.4473 50.9843 54.6001 50.5998 54.6001H27.3998C27.0153 54.6001 26.6463 54.4473 26.3744 54.1754C26.1026 53.9035 25.9498 53.5346 25.9498 53.1501V35.7501C25.9498 35.3656 26.1026 34.9966 26.3744 34.7247C26.6463 34.4528 27.0153 34.3001 27.3998 34.3001H50.5998C50.9843 34.3001 51.3533 34.4528 51.6252 34.7247C51.897 34.9966 52.0498 35.3656 52.0498 35.7501V53.1501Z" fill="#E85451"/>
<path fill-rule="evenodd" clip-rule="evenodd" d="M46.6455 39.8364L37.4237 49.0582C36.9508 49.5311 36.2021 49.5311 35.7291 49.0582L31.3547 44.6838C30.8818 44.2108 30.8818 43.4621 31.3547 42.9892C31.8277 42.5162 32.5764 42.5162 33.0493 42.9892L36.5764 46.5163L44.9509 38.1418C45.4239 37.6689 46.1726 37.6689 46.6455 38.1418C47.1185 38.6148 47.1185 39.3636 46.6456 39.8364H46.6455Z" fill="#E85451"/>
</svg>
