<svg width="16" height="16" viewBox="0 0 16 16" fill="none" xmlns="http://www.w3.org/2000/svg">
<g clip-path="url(#clip0_1_34)">
<path d="M11.97 0.286713H4.51479C3.52616 0.286713 2.57803 0.679442 1.87896 1.37851C1.1799 2.07757 0.78717 3.0257 0.78717 4.01433L0.78717 11.4696C0.78717 12.4582 1.1799 13.4063 1.87896 14.1054C2.57803 14.8044 3.52616 15.1972 4.51479 15.1972H11.97C12.9586 15.1972 13.9068 14.8044 14.6058 14.1054C15.3049 13.4063 15.6976 12.4582 15.6976 11.4696V4.01433C15.6976 3.0257 15.3049 2.07757 14.6058 1.37851C13.9068 0.679442 12.9586 0.286713 11.97 0.286713V0.286713ZM14.9987 11.4696C14.9978 12.2725 14.6784 13.0424 14.1106 13.6101C13.5428 14.1779 12.773 14.4973 11.97 14.4982H4.51479C3.71181 14.4973 2.94199 14.1779 2.3742 13.6101C1.80641 13.0424 1.48702 12.2725 1.4861 11.4696V4.01433C1.48702 3.21135 1.80641 2.44153 2.3742 1.87374C2.94199 1.30596 3.71181 0.986565 4.51479 0.98564H11.97C12.773 0.986565 13.5428 1.30596 14.1106 1.87374C14.6784 2.44153 14.9978 3.21135 14.9987 4.01433V11.4696Z" fill="#37474F"/>
<path d="M11.3876 10.3927L5.59162 4.59671H7.88433V3.89778H4.39832V7.3838H5.09724V5.09085L10.8935 10.8871H8.6005V11.586H12.0865V8.09997H11.3876V10.3927Z" fill="#37474F"/>
</g>
<defs>
<clipPath id="clip0_1_34">
<rect width="14.9105" height="14.9105" fill="white" transform="translate(0.78717 0.286713)"/>
</clipPath>
</defs>
</svg>
