<svg width="42" height="40" viewBox="0 0 42 40" fill="none" xmlns="http://www.w3.org/2000/svg">
<path d="M40.3869 19.2235V2.24891C40.3869 1.92484 40.1242 1.66211 39.8001 1.66211H2.2C1.87586 1.66211 1.6132 1.92484 1.6132 2.24891V19.2236C1.24898 19.4164 1 19.7989 1 20.2389V21.4433C1 21.8833 1.24898 22.2659 1.6132 22.4587V37.751C1.6132 38.0751 1.87594 38.3378 2.2 38.3378H4.86595H7.48353H7.66111H14.2344H20.9854H27.7364H34.339H34.4873H37.1341H39.8C40.1241 38.3378 40.3868 38.0751 40.3868 37.751V22.4587C40.751 22.2658 41 21.8833 41 21.4433V20.2389C41.0001 19.7989 40.7511 19.4164 40.3869 19.2235ZM38.9919 2.83578C38.7568 3.18141 38.3229 3.58625 37.636 4.01766C37.6276 4.02297 37.619 4.02821 37.6105 4.03352C37.5707 4.05836 37.5298 4.08329 37.4883 4.10829C37.4693 4.11969 37.4503 4.13102 37.4311 4.14243C37.3995 4.16118 37.3671 4.17993 37.3345 4.19876C37.3083 4.21391 37.2821 4.22907 37.2552 4.2443C37.2294 4.25891 37.2028 4.2736 37.1764 4.28821C37.1436 4.30641 37.1112 4.32462 37.0775 4.3429C37.0716 4.3461 37.0655 4.3493 37.0596 4.35243C36.9746 4.39836 36.8866 4.4443 36.7962 4.4904C36.7719 4.50282 36.7481 4.51516 36.7234 4.52751C36.6887 4.54493 36.6531 4.56227 36.6178 4.57969C36.5853 4.59563 36.5529 4.61165 36.5197 4.62758C36.488 4.6429 36.4558 4.65813 36.4235 4.67344C36.3823 4.69297 36.3405 4.71251 36.2982 4.73204C36.272 4.74415 36.2458 4.75626 36.2192 4.76837C36.1615 4.79469 36.1027 4.82102 36.043 4.84735C36.0301 4.85313 36.0173 4.85883 36.0042 4.86462C35.7643 4.96977 35.5091 5.07524 35.2373 5.18063C35.2373 5.18063 35.2373 5.18071 35.2372 5.18071C34.8859 5.31696 34.5108 5.4518 34.1098 5.5843C33.0241 5.94282 31.854 6.25345 30.6223 6.51399C30.6028 6.5161 30.5833 6.51899 30.5637 6.52313C29.3951 6.76767 28.1651 6.96868 26.9079 7.12071C26.8921 7.12267 26.8765 7.12595 26.8609 7.12907C24.9684 7.35478 22.9941 7.47267 21 7.47267C19.006 7.47267 17.0316 7.35486 15.1391 7.12923C15.1235 7.12603 15.1081 7.12275 15.0922 7.12087C13.8346 6.96876 12.6046 6.76774 11.4365 6.52329C11.4169 6.51915 11.3974 6.51626 11.3778 6.51415C10.1462 6.2536 8.97603 5.94298 7.8904 5.58446C7.48931 5.45204 7.11415 5.31712 6.76298 5.18087C6.7629 5.18087 6.76282 5.18079 6.76282 5.18079C6.49118 5.07548 6.23595 4.97001 5.9961 4.86485C5.9829 4.85907 5.97001 4.85321 5.95688 4.84743C5.89728 4.8211 5.83868 4.79485 5.78102 4.7686C5.75446 4.75649 5.72821 4.74438 5.70204 4.73227C5.6597 4.71274 5.61798 4.69313 5.57673 4.67368C5.54446 4.65837 5.51227 4.64313 5.48056 4.62782C5.44735 4.6118 5.41493 4.59587 5.38243 4.57993C5.34704 4.56251 5.31149 4.54516 5.27688 4.52774C5.2522 4.51532 5.22829 4.50297 5.20399 4.49063C5.11462 4.44508 5.02743 4.39954 4.94321 4.35407C4.93641 4.3504 4.9293 4.34672 4.92259 4.34305C4.88907 4.32493 4.8568 4.3068 4.82415 4.2886C4.79766 4.27391 4.77087 4.25915 4.74501 4.24446C4.71813 4.22922 4.69196 4.21407 4.66571 4.19891C4.63313 4.18008 4.60079 4.16133 4.56915 4.14258C4.54985 4.13118 4.53087 4.11977 4.51196 4.10844C4.4704 4.08344 4.42954 4.05852 4.38969 4.03368C4.38118 4.02836 4.37266 4.02313 4.36423 4.01782C3.67727 3.58633 3.24336 3.18141 3.00829 2.83586L38.9919 2.83578ZM2.7868 4.32508C2.96758 4.48157 3.175 4.64094 3.41008 4.80235C4.0336 5.23376 4.86462 5.68251 5.96782 6.13063C5.96696 9.81713 4.8918 13.9195 3.97172 16.7549C3.87172 17.0632 4.04047 17.3942 4.34883 17.4942C4.65665 17.594 4.98798 17.4253 5.08813 17.1171C5.99876 14.3108 7.05611 10.2895 7.13603 6.56798C7.2622 6.61165 7.39048 6.65532 7.52236 6.69884C8.47916 7.01478 9.4983 7.29493 10.5656 7.53743C9.32541 11.3856 7.30329 14.5581 5.78774 16.5795C5.59337 16.8388 5.64595 17.2066 5.90524 17.401C6.01079 17.4801 6.13431 17.5183 6.25681 17.5183C6.43525 17.5183 6.6115 17.4372 6.72681 17.2835C8.31212 15.169 10.4339 11.8363 11.7206 7.78134C12.5288 7.93962 13.3604 8.07704 14.2097 8.19306C12.9667 11.2385 10.4799 14.3754 8.54361 16.5355C8.32728 16.7768 8.34751 17.1478 8.58892 17.3642C8.83033 17.5806 9.20127 17.5602 9.41759 17.3189C13.028 13.2914 14.6678 10.2728 15.4125 8.34134C17.2256 8.54181 19.105 8.64619 21 8.64619C22.8951 8.64619 24.7746 8.54181 26.5877 8.34134C27.8565 11.6414 30.5253 15.0248 32.5874 17.3247C32.8037 17.566 33.1747 17.5862 33.4161 17.3699C33.6574 17.1535 33.6776 16.7825 33.4612 16.5412C31.5231 14.3796 29.034 11.2403 27.7902 8.19314C28.6396 8.0772 29.4711 7.93978 30.2794 7.78142C31.5676 11.8412 33.6929 15.1773 35.2809 17.2939C35.3962 17.4475 35.5723 17.5285 35.7508 17.5285C35.8734 17.5285 35.9969 17.4903 36.1025 17.411C36.3617 17.2165 36.4142 16.8487 36.2197 16.5895C34.7015 14.566 32.676 11.3902 31.4343 7.53735C32.5015 7.29485 33.5208 7.0147 34.4776 6.69876C34.6094 6.65524 34.7377 6.61157 34.8639 6.5679C34.9438 10.2875 36.0001 14.3062 36.9098 17.1107C37.0098 17.419 37.3408 17.5876 37.6491 17.4878C37.9573 17.3878 38.1262 17.0568 38.0262 16.7485C37.107 13.9149 36.033 9.81525 36.0322 6.13056C37.1354 5.68243 37.9664 5.23368 38.5899 4.80227C38.825 4.64087 39.0325 4.48157 39.2132 4.32501V19.0901H35.958C35.3247 19.0901 34.8094 19.6054 34.8094 20.2388V21.4432C34.8094 21.7554 34.9349 22.0384 35.1376 22.2457C34.7823 23.3257 34.3587 24.6813 33.9527 26.1497H8.04744C7.64134 24.6813 7.21767 23.3254 6.86243 22.2457C7.06517 22.0384 7.19072 21.7554 7.19072 21.4432V20.2388C7.19072 19.6054 6.6754 19.0901 6.04204 19.0901H2.7868V4.32508ZM2.17367 21.4183V20.2639H6.01704V21.4183H3.78665H2.2H2.17367ZM5.19306 36.9731C5.12813 37.091 5.00282 37.1642 4.86595 37.1642H2.7868V22.592H3.34899C5.48634 29.8282 6.17618 35.1879 5.19306 36.9731ZM8.07033 37.1642V33.9252C8.07033 33.2278 8.63775 32.6604 9.33517 32.6604H12.3828C13.0803 32.6604 13.6476 33.2278 13.6476 33.9252V37.1642H8.07033ZM14.8213 37.1642V33.9252C14.8213 33.2278 15.3887 32.6604 16.0861 32.6604H19.1337C19.8312 32.6604 20.3986 33.2278 20.3986 33.9252V37.1642H14.8213ZM21.5723 37.1642V33.9252C21.5723 33.2278 22.1397 32.6604 22.8371 32.6604H25.8847C26.5822 32.6604 27.1495 33.2278 27.1495 33.9252V37.1642H21.5723ZM33.9005 37.1642H28.3232V33.9252C28.3232 33.2278 28.8906 32.6604 29.588 32.6604H32.6356C33.333 32.6604 33.9005 33.2278 33.9005 33.9252V37.1642ZM35.0741 37.1641V33.9252C35.0741 32.5806 33.9802 31.4867 32.6357 31.4867H29.5881C28.8478 31.4867 28.184 31.8187 27.7364 32.3412C27.2888 31.8187 26.625 31.4867 25.8847 31.4867H22.8371C22.0968 31.4867 21.433 31.8187 20.9854 32.3412C20.5379 31.8187 19.874 31.4867 19.1337 31.4867H16.0861C15.3459 31.4867 14.6821 31.8187 14.2344 32.3412C13.7868 31.8187 13.123 31.4867 12.3828 31.4867H9.33517C7.99056 31.4867 6.89665 32.5806 6.89665 33.9252V37.1642H6.39532C7.5847 34.1582 5.88517 27.0998 4.57204 22.592H5.74087C6.29532 24.2759 7.02095 26.647 7.57689 29.0547C7.64978 29.3705 7.96486 29.5674 8.28072 29.4945C8.5965 29.4216 8.79338 29.1065 8.72048 28.7907C8.60673 28.2981 8.48611 27.8073 8.36134 27.3235H33.6389C33.5129 27.812 33.3911 28.3077 33.2764 28.8052C33.2036 29.121 33.4005 29.4361 33.7164 29.5089C33.7608 29.5191 33.8051 29.524 33.8488 29.524C34.1159 29.524 34.3575 29.3404 34.4201 29.069C34.9766 26.6559 35.7037 24.2794 36.2594 22.5919H37.4282C36.1151 27.0997 34.4155 34.1581 35.6049 37.1641H35.0741ZM39.2133 37.1642H37.1342C36.9973 37.1642 36.872 37.091 36.8071 36.9731C35.824 35.188 36.5138 29.8282 38.6511 22.592H39.2133V37.1642ZM39.8264 21.4183H39.8001H38.2134H35.983V20.2639H39.8264V21.4183Z" fill="#37474F"/>
</svg>
