<svg width="14" height="15" viewBox="0 0 14 15" fill="none" xmlns="http://www.w3.org/2000/svg">
<path d="M7.00009 1.6301C7.34577 1.6301 7.70253 1.6988 8.07036 1.83618C8.4382 1.97357 8.75951 2.14641 9.03428 2.3547C9.30905 2.56299 9.53507 2.79345 9.71234 3.04606C9.88961 3.29867 9.97825 3.53577 9.97825 3.75736V5.88461C9.97825 6.38984 9.87188 6.95267 9.65916 7.57312C9.44643 8.19357 9.13178 8.66334 8.71519 8.98243C8.64428 9.04447 8.58224 9.1176 8.52905 9.2018C8.47587 9.28601 8.4382 9.37464 8.41604 9.46771C8.39388 9.56078 8.38724 9.65606 8.3961 9.75356C8.44042 10.0726 8.60439 10.2987 8.88803 10.4316L12.5974 12.1866C12.5974 12.1866 12.6063 12.1888 12.624 12.1933C12.6417 12.1977 12.6595 12.2043 12.6772 12.2132C12.6949 12.2221 12.7171 12.2354 12.7437 12.2531C12.7703 12.2708 12.7946 12.2908 12.8168 12.3129C12.839 12.3351 12.8611 12.3639 12.8833 12.3993C12.9054 12.4348 12.9209 12.4791 12.9298 12.5323C12.9387 12.5855 12.9431 12.6431 12.9431 12.7051V13.5294L1.04377 13.5427V12.6785C1.04377 12.4569 1.16343 12.293 1.40275 12.1866L5.13874 10.4183C5.42237 10.2854 5.58413 10.0616 5.62402 9.74691C5.66391 9.43226 5.55976 9.17743 5.31158 8.98243C4.90386 8.65448 4.58698 8.17806 4.36096 7.55318C4.13494 6.9283 4.02193 6.37211 4.02193 5.88461V3.75736C4.02193 3.46486 4.16818 3.15242 4.46068 2.82004C4.75318 2.48765 5.13431 2.20623 5.60408 1.97578C6.07385 1.74533 6.53918 1.6301 7.00009 1.6301ZM7.00009 0.779201C6.3885 0.779201 5.78356 0.927666 5.18527 1.2246C4.58698 1.52152 4.1017 1.90266 3.72943 2.36799C3.35716 2.83333 3.17103 3.29645 3.17103 3.75736V5.88461C3.17103 6.46075 3.3062 7.1233 3.57654 7.87227C3.84688 8.62124 4.24795 9.21288 4.77977 9.6472L1.04377 11.4155C1.01718 11.4243 0.98616 11.4376 0.950706 11.4554C0.915252 11.4731 0.848775 11.513 0.751276 11.575C0.653776 11.6371 0.567357 11.6991 0.492016 11.7612C0.416676 11.8232 0.347983 11.9008 0.285939 11.9938C0.223894 12.0869 0.192871 12.1733 0.192871 12.2531V13.5427C0.192871 13.7732 0.274859 13.9704 0.438835 14.1344C0.602811 14.2984 0.804457 14.3803 1.04377 14.3803H12.9564C13.1869 14.3803 13.3841 14.2984 13.548 14.1344C13.712 13.9704 13.794 13.7732 13.794 13.5427V12.2531C13.794 12.1644 13.7652 12.0736 13.7076 11.9805C13.65 11.8875 13.5791 11.8077 13.4949 11.7412C13.4107 11.6747 13.3287 11.6149 13.2489 11.5617C13.1691 11.5085 13.0982 11.4687 13.0362 11.4421L12.9564 11.4155L9.247 9.6472C9.77882 9.23061 10.1755 8.65448 10.4369 7.9188C10.6984 7.18313 10.8291 6.50506 10.8291 5.88461V3.75736C10.8291 3.41168 10.7161 3.05935 10.4901 2.70038C10.2641 2.3414 9.97381 2.0201 9.61927 1.73647C9.26473 1.45283 8.85257 1.22238 8.3828 1.04511C7.91304 0.867836 7.45213 0.779201 7.00009 0.779201Z" fill="#232323"/>
</svg>
