<svg width="16" height="15" viewBox="0 0 16 15" fill="none" xmlns="http://www.w3.org/2000/svg">
<g clip-path="url(#clip0_544_1675)">
<path d="M12.8353 14.9996H9.21762C9.13852 14.9996 9.06266 14.9673 9.00673 14.91C8.9508 14.8527 8.91938 14.7749 8.91938 14.6938C8.91938 14.6128 8.9508 14.535 9.00673 14.4777C9.06266 14.4203 9.13852 14.3881 9.21762 14.3881H9.38879V13.8694C9.38937 13.5997 9.49413 13.3412 9.68015 13.1504C9.86617 12.9596 10.1183 12.8521 10.3814 12.8514H11.671C11.9341 12.8522 12.1863 12.9598 12.3723 13.1505C12.5584 13.3412 12.6633 13.5997 12.6641 13.8694V14.3881H12.8353C12.9144 14.3881 12.9902 14.4203 13.0461 14.4777C13.1021 14.535 13.1335 14.6128 13.1335 14.6938C13.1335 14.7749 13.1021 14.8527 13.0461 14.91C12.9902 14.9673 12.9144 14.9996 12.8353 14.9996ZM7.77012 14.9996H4.15247C4.07337 14.9996 3.99751 14.9673 3.94158 14.91C3.88565 14.8527 3.85423 14.7749 3.85423 14.6938C3.85423 14.6128 3.88565 14.535 3.94158 14.4777C3.99751 14.4203 4.07337 14.3881 4.15247 14.3881H4.32056V13.8694C4.32137 13.5994 4.42651 13.3406 4.61295 13.1499C4.7994 12.9591 5.05197 12.8518 5.31541 12.8514H6.60497C6.8681 12.8521 7.12024 12.9596 7.30626 13.1504C7.49228 13.3412 7.59703 13.5997 7.59762 13.8694V14.3881H7.76879C7.84789 14.3881 7.92375 14.4203 7.97968 14.4777C8.03561 14.535 8.06703 14.6128 8.06703 14.6938C8.06703 14.7749 8.03561 14.8527 7.97968 14.91C7.92375 14.9673 7.84789 14.9996 7.76879 14.9996H7.77012ZM15.3659 12.3964H11.7482C11.6691 12.3964 11.5932 12.3642 11.5373 12.3069C11.4814 12.2496 11.45 12.1718 11.45 12.0907C11.45 12.0096 11.4814 11.9319 11.5373 11.8746C11.5932 11.8172 11.6691 11.785 11.7482 11.785H11.9194V11.2663C11.9202 10.9966 12.0251 10.7381 12.2111 10.5474C12.3972 10.3566 12.6493 10.2491 12.9125 10.2483H14.2029C14.466 10.249 14.7182 10.3565 14.9042 10.5473C15.0902 10.738 15.195 10.9966 15.1956 11.2663V11.7859H15.3667C15.4458 11.7859 15.5217 11.8181 15.5776 11.8755C15.6335 11.9328 15.665 12.0106 15.665 12.0916C15.665 12.1727 15.6335 12.2505 15.5776 12.3078C15.5217 12.3651 15.4458 12.3974 15.3667 12.3974L15.3659 12.3964ZM10.3011 12.3964H6.6835C6.64433 12.3964 6.60555 12.3885 6.56937 12.3732C6.53319 12.3578 6.50031 12.3353 6.47261 12.3069C6.44492 12.2785 6.42295 12.2448 6.40796 12.2077C6.39298 12.1706 6.38526 12.1309 6.38526 12.0907C6.38526 12.0506 6.39298 12.0108 6.40796 11.9737C6.42295 11.9366 6.44492 11.9029 6.47261 11.8746C6.50031 11.8462 6.53319 11.8236 6.56937 11.8083C6.60555 11.7929 6.64433 11.785 6.6835 11.785H6.85467V11.2663C6.85537 10.9966 6.96017 10.7382 7.14616 10.5474C7.33215 10.3567 7.58423 10.2491 7.84732 10.2483H9.13688C9.40001 10.2491 9.65214 10.3566 9.8382 10.5474C10.0243 10.7381 10.1292 10.9966 10.13 11.2663V11.7859H10.3011C10.3802 11.7859 10.4561 11.8181 10.512 11.8755C10.568 11.9328 10.5994 12.0106 10.5994 12.0916C10.5994 12.1727 10.568 12.2505 10.512 12.3078C10.4561 12.3651 10.3802 12.3974 10.3011 12.3974V12.3964ZM5.23644 12.3964H1.61879C1.57963 12.3964 1.54085 12.3885 1.50466 12.3732C1.46848 12.3578 1.4356 12.3353 1.40791 12.3069C1.38021 12.2785 1.35825 12.2448 1.34326 12.2077C1.32827 12.1706 1.32056 12.1309 1.32056 12.0907C1.32056 12.0506 1.32827 12.0108 1.34326 11.9737C1.35825 11.9366 1.38021 11.9029 1.40791 11.8746C1.4356 11.8462 1.46848 11.8236 1.50466 11.8083C1.54085 11.7929 1.57963 11.785 1.61879 11.785H1.78997V11.2663C1.79055 10.9966 1.89531 10.738 2.08132 10.5473C2.26734 10.3565 2.51949 10.249 2.78262 10.2483H4.07217C4.33531 10.2491 4.58743 10.3566 4.77349 10.5474C4.95956 10.7381 5.06445 10.9966 5.06526 11.2663V11.7859H5.23644C5.31554 11.7859 5.39139 11.8181 5.44732 11.8755C5.50325 11.9328 5.53467 12.0106 5.53467 12.0916C5.53467 12.1727 5.50325 12.2505 5.44732 12.3078C5.39139 12.3651 5.31554 12.3974 5.23644 12.3974V12.3964Z" fill="#7E7E7E"/>
<path d="M15.8158 0.180908H1.1687V7.50725H15.8158V0.180908Z" stroke="#7E7E7E" stroke-width="0.632079"/>
</g>
<defs>
<clipPath id="clip0_544_1675">
<rect width="15" height="15" fill="white" transform="translate(0.992188)"/>
</clipPath>
</defs>
</svg>
