<svg width="16" height="15" viewBox="0 0 16 15" fill="none" xmlns="http://www.w3.org/2000/svg">
<g clip-path="url(#clip0_558_3634)">
<path d="M2.07321 13.9524L2.14209 13.8799L2.07321 13.9524C2.17329 14.0474 2.30797 14.1 2.4474 14.1H13.3849C13.5244 14.1 13.659 14.0474 13.7591 13.9524C13.8594 13.8571 13.9167 13.7268 13.9167 13.5898V0.410186C13.9167 0.273173 13.8594 0.142877 13.7591 0.0476406C13.659 -0.0474299 13.5244 -0.1 13.3849 -0.1H13.2849H2.4474C2.30797 -0.1 2.17329 -0.04743 2.07321 0.0476406C1.97297 0.142877 1.91562 0.273173 1.91562 0.410186V13.5898C1.91562 13.7268 1.97297 13.8571 2.07321 13.9524ZM12.8532 13.0796H2.97917V0.920371H12.8532V13.0796Z" fill="#737678" stroke="white" stroke-width="0.2"/>
<path d="M5.67788 3.84004L5.60875 3.88383V3.96566V6.07028V6.21897H5.75744H6.62099H6.76968V6.07028V4.83972C6.76968 4.7729 6.79755 4.70717 6.84986 4.65748C6.90243 4.60753 6.97529 4.57823 7.05276 4.57823H8.77986C8.85733 4.57823 8.93019 4.60753 8.98276 4.65748C9.03507 4.70717 9.06294 4.7729 9.06294 4.83972V6.07028V6.21897H9.21163H10.0752H10.2239V6.07028V3.96566V3.88383L10.1547 3.84004L7.99587 2.47276L7.91631 2.42237L7.83675 2.47276L5.67788 3.84004ZM10.5077 6.74196L5.32604 6.74196C5.32598 6.74196 5.32592 6.74196 5.32586 6.74196C5.24864 6.74172 5.17608 6.71238 5.12372 6.66255C5.07158 6.61292 5.04377 6.54736 5.04371 6.48069L5.04371 3.7463C5.04371 3.74628 5.04371 3.74627 5.04371 3.74625C5.04373 3.70465 5.05453 3.66331 5.07566 3.6258C5.09682 3.58823 5.12789 3.55538 5.16677 3.53074L7.75735 1.89004C7.75736 1.89003 7.75737 1.89003 7.75737 1.89002C7.80411 1.86044 7.85975 1.84425 7.91725 1.84425C7.97475 1.84425 8.0304 1.86044 8.07713 1.89002C8.07714 1.89003 8.07715 1.89003 8.07716 1.89004L10.6677 3.53074C10.7066 3.55538 10.7377 3.58823 10.7589 3.6258C10.78 3.66331 10.7908 3.70465 10.7908 3.74625C10.7908 3.74627 10.7908 3.74628 10.7908 3.7463V6.48046C10.7908 6.54728 10.7629 6.61301 10.7106 6.66271C10.658 6.71265 10.5852 6.74196 10.5077 6.74196Z" fill="#737678" stroke="white" stroke-width="0.297382"/>
<path d="M10.3294 10.2966H4.64026C4.49736 10.2966 4.37464 10.2573 4.29192 10.2017C4.20828 10.1455 4.17896 10.0838 4.17896 10.0351C4.17896 9.98628 4.20828 9.92456 4.29178 9.86837C4.37438 9.81278 4.49699 9.77357 4.63988 9.77357H10.3291C10.472 9.77357 10.5947 9.81278 10.6774 9.8684C10.761 9.92464 10.7903 9.98637 10.7903 10.0351C10.7903 10.0838 10.761 10.1456 10.6775 10.2018C10.5949 10.2573 10.4723 10.2966 10.3294 10.2966Z" fill="#737678" stroke="white" stroke-width="0.297382"/>
<path d="M10.3294 11.9373H4.64026C4.49736 11.9373 4.37464 11.8981 4.29192 11.8425C4.20828 11.7862 4.17896 11.7245 4.17896 11.6758C4.17896 11.627 4.20828 11.5653 4.29178 11.5091C4.37438 11.4535 4.49699 11.4143 4.63988 11.4143H10.3291C10.472 11.4143 10.5947 11.4535 10.6774 11.5091C10.761 11.5654 10.7903 11.6271 10.7903 11.6758C10.7903 11.7246 10.761 11.7863 10.6775 11.8425C10.5949 11.8981 10.4723 11.9373 10.3294 11.9373Z" fill="#737678" stroke="white" stroke-width="0.297382"/>
</g>
<defs>
<clipPath id="clip0_558_3634">
<rect width="15" height="15" fill="white" transform="translate(0.962891)"/>
</clipPath>
</defs>
</svg>
