<svg width="15" height="15" viewBox="0 0 15 15" fill="none" xmlns="http://www.w3.org/2000/svg">
<g clip-path="url(#clip0_544_1645)">
<path d="M10.9745 6.98772C11.0642 6.88967 11.1472 6.78423 11.2225 6.67237C11.3702 6.84303 11.5402 6.98796 11.7269 7.10164C11.9969 7.26597 12.2948 7.36055 12.5994 7.37934H12.4384V7.76099M10.9745 6.98772C10.8846 6.88973 10.8016 6.78436 10.7261 6.67256C10.5786 6.84321 10.4089 6.98811 10.2223 7.10175C9.91961 7.28606 9.58182 7.38247 9.23874 7.38247C8.89567 7.38247 8.55788 7.28606 8.25521 7.10175C8.06856 6.9881 7.89882 6.84319 7.75132 6.67252C7.67582 6.78429 7.5928 6.88964 7.50293 6.98761M10.9745 6.98772C11.136 7.1639 11.3197 7.31623 11.5215 7.4391C11.8049 7.61155 12.1163 7.72117 12.4384 7.76099M10.9745 6.98772C10.8131 7.16394 10.6295 7.3163 10.4277 7.43917C10.0653 7.65987 9.65676 7.77752 9.23874 7.77752C8.82073 7.77752 8.41218 7.65987 8.04974 7.43917C7.84791 7.31627 7.66433 7.16388 7.50293 6.98761M7.50293 6.98761C7.41315 6.88955 7.33024 6.78411 7.25487 6.67225C7.10694 6.84307 6.93677 6.98809 6.7497 7.10181C6.44654 7.28609 6.10831 7.38247 5.76482 7.38247C5.42132 7.38247 5.08309 7.28609 4.77993 7.10181C4.59281 6.98806 4.4226 6.84299 4.27464 6.67211C4.19918 6.78389 4.11619 6.88925 4.02636 6.98723M7.50293 6.98761C7.34112 7.16399 7.15713 7.31646 6.9549 7.43938C6.63875 7.63156 6.28767 7.74554 5.92585 7.77171M4.02636 6.98723C3.93652 6.88926 3.85352 6.78391 3.77805 6.67214C3.63013 6.84302 3.45994 6.98808 3.27284 7.10181C3.00311 7.26578 2.70561 7.36014 2.40134 7.37891H2.55749V7.76115M4.02636 6.98723C4.18825 7.16378 4.37236 7.31637 4.57473 7.43938C4.84413 7.60314 5.1389 7.71012 5.44405 7.75437M4.02636 6.98723C3.8645 7.16378 3.6804 7.31637 3.47805 7.43938C3.1936 7.61229 2.88087 7.72189 2.55749 7.76115M2.55749 7.76115C2.46836 7.77197 2.37841 7.77745 2.28802 7.77744C2.28802 7.77744 2.28801 7.77744 2.288 7.77744C2.28799 7.77744 2.28798 7.77744 2.28797 7.77744L2.28324 7.77744C2.25143 7.77745 2.20871 7.77746 2.16244 7.77486V13.5722H2.55749M2.55749 7.76115V13.5722M2.55749 13.5722V13.9673H3.03696V13.5722M2.55749 13.5722H3.03696M3.03696 13.5722H3.432V9.5502C3.43251 9.17887 3.562 8.82291 3.79211 8.56034M3.03696 13.5722V9.5502V9.54966C3.03758 9.08933 3.19766 8.63926 3.495 8.29997L3.79211 8.56034M3.79211 8.56034C4.02222 8.29776 4.33416 8.15 4.65958 8.14942H5.70202C6.02744 8.15 6.33939 8.29776 6.56949 8.56034C6.7996 8.82291 6.92909 9.17887 6.9296 9.5502V13.5692H7.32465M3.79211 8.56034L3.495 8.29996C3.7938 7.95902 4.21087 7.75516 4.65888 7.75437L4.65958 7.75437L5.44405 7.75437M7.32465 13.5692V13.9642H12.4384V13.5692M7.32465 13.5692L7.32465 9.5502L7.32465 9.54966C7.32402 9.08933 7.16394 8.63926 6.8666 8.29997C6.61809 8.01639 6.28776 7.82765 5.92585 7.77171M7.32465 13.5692H12.4384M12.4384 13.5692H12.8335V7.77439C12.8224 7.77439 12.8106 7.77484 12.7893 7.77576L12.787 7.77586C12.7681 7.77668 12.7406 7.77788 12.711 7.77788H12.7106C12.6193 7.7778 12.5285 7.77212 12.4384 7.76099M12.4384 13.5692V7.76099M5.92585 7.77171C5.8728 7.76351 5.81907 7.75816 5.76482 7.75578C5.74419 7.75488 5.72349 7.75441 5.70272 7.75437H5.70202H5.44405M5.92585 7.77171C5.87238 7.77557 5.81868 7.77752 5.76482 7.77752C5.74408 7.77752 5.72337 7.77724 5.70268 7.77666C5.70246 7.77665 5.70224 7.77665 5.70202 7.77664C5.61544 7.7742 5.52934 7.76674 5.44405 7.75437M15.2054 4.99197C15.2066 4.85994 15.1763 4.72748 15.1145 4.60846L12.9404 0.24923L12.9404 0.249204C12.8806 0.12936 12.791 0.0230325 12.6755 -0.0542082C12.5594 -0.131836 12.4226 -0.176152 12.2792 -0.177262V-0.177274H12.2762H2.72145M15.2054 4.99197C15.2045 5.52417 15.068 6.04784 14.8084 6.49947C14.5925 6.87524 14.2973 7.19025 13.9458 7.41442V14.3732V14.3743C13.9452 14.5711 13.877 14.7684 13.7433 14.9215C13.6082 15.0762 13.4131 15.1757 13.1963 15.1773L13.1934 15.1773L1.80402 15.1773H1.80259C1.5853 15.1765 1.38949 15.0772 1.2538 14.9224L1.55091 14.662L1.2538 14.9224C1.11955 14.7692 1.0511 14.5715 1.05055 14.3743L1.05054 14.3732L1.05054 7.40701C0.699799 7.18293 0.405528 6.8682 0.190365 6.49294L0.190365 6.49294C-0.067932 6.04244 -0.203575 5.52032 -0.204131 4.98981L-0.204136 4.9858H-0.204115C-0.202944 4.85716 -0.173104 4.72872 -0.114844 4.61219C-0.114762 4.61203 -0.11468 4.61186 -0.114598 4.6117L2.05588 0.250767C2.11512 0.129926 2.20483 0.0225728 2.32107 -0.0551563L2.54066 0.27324L2.32107 -0.0551567C2.43825 -0.133514 2.57666 -0.177624 2.72145 -0.177274M15.2054 4.99197C15.2054 4.99124 15.2054 4.99052 15.2054 4.98979L14.8104 4.9894L15.2054 4.99416C15.2054 4.99343 15.2054 4.9927 15.2054 4.99197ZM2.72145 -0.177274C2.72174 -0.177273 2.72203 -0.177272 2.72232 -0.177271L2.72088 0.217775V-0.177274H2.72145ZM3.1748 1.4343H11.8228L13.129 4.05599H1.87103L3.1748 1.4343ZM8.43331 5.65929H10.0442C9.98963 5.75275 9.92413 5.83621 9.85001 5.90699C9.67072 6.0782 9.4538 6.16408 9.23874 6.16408C9.02369 6.16408 8.80677 6.0782 8.62747 5.90699C8.55336 5.83621 8.48786 5.75275 8.43331 5.65929ZM4.95747 5.65929H6.56987C6.51525 5.75259 6.44972 5.83591 6.37561 5.90657C6.19608 6.07776 5.97895 6.16364 5.76367 6.16364C5.54839 6.16364 5.33126 6.07776 5.15173 5.90657C5.07762 5.83591 5.01209 5.75259 4.95747 5.65929ZM1.67742 5.90657C1.60331 5.83591 1.53778 5.75259 1.48316 5.65929H3.09556C3.04094 5.75259 2.97541 5.83591 2.9013 5.90657C2.72177 6.07776 2.50464 6.16364 2.28936 6.16364C2.07408 6.16364 1.85695 6.07776 1.67742 5.90657ZM5.82037 13.5692H4.54657V9.5502C4.54657 9.48481 4.56981 9.4309 4.59822 9.39848C4.62517 9.36773 4.64966 9.36246 4.66225 9.36246H5.7047C5.71729 9.36246 5.74178 9.36773 5.76873 9.39848C5.79714 9.4309 5.82037 9.48481 5.82037 9.5502V13.5692ZM12.7103 6.16935C12.4954 6.16938 12.2785 6.08355 12.0993 5.91238C12.0251 5.84146 11.9595 5.75778 11.9049 5.66408H13.5172C13.4624 5.75714 13.3969 5.84028 13.3229 5.91087C13.1432 6.08218 12.9259 6.16857 12.7103 6.16935Z" fill="#7E7E7E" stroke="white" stroke-width="0.790099"/>
<path d="M6.92756 8.24878H3.49219V14.3467H6.92756V8.24878Z" fill="#7E7E7E"/>
<path d="M11.1264 8.24878H8.83618V10.8622H11.1264V8.24878Z" fill="#7E7E7E"/>
</g>
<defs>
<clipPath id="clip0_544_1645">
<rect width="15" height="15" fill="white"/>
</clipPath>
</defs>
</svg>
