<svg width="24" height="24" viewBox="0 0 24 24" fill="none" xmlns="http://www.w3.org/2000/svg">
<g clip-path="url(#clip0_2626_1388)">
<path d="M24 23C24 23.2653 23.8947 23.5196 23.7071 23.7071C23.5196 23.8947 23.2652 24 23 24H1.00002C0.734808 24 0.480454 23.8947 0.292918 23.7071C0.105381 23.5196 2.46239e-05 23.2653 2.46239e-05 23C2.46239e-05 22.7348 0.105381 22.4805 0.292918 22.2929C0.480454 22.1054 0.734808 22 1.00002 22H23C23.2652 22 23.5196 22.1054 23.7071 22.2929C23.8947 22.4805 24 22.7348 24 23ZM0.291025 8.55204C0.0755469 8.15237 -0.0242807 7.70055 0.00274505 7.24729C0.0297708 6.79403 0.18258 6.35728 0.444025 5.98604C0.871283 5.35916 1.44347 4.8446 2.11202 4.48604L9.61303 0.58204C10.3503 0.198671 11.169 -0.0014801 12 -0.0014801C12.831 -0.0014801 13.6498 0.198671 14.387 0.58204L21.887 4.48904C22.5556 4.8476 23.1278 5.36216 23.555 5.98904C23.8165 6.36028 23.9693 6.79703 23.9963 7.25029C24.0233 7.70355 23.9235 8.15537 23.708 8.55504C23.476 8.99387 23.1281 9.36064 22.7021 9.61543C22.2761 9.87022 21.7884 10.0032 21.292 10H21V18H22C22.2652 18 22.5196 18.1054 22.7071 18.2929C22.8947 18.4805 23 18.7348 23 19C23 19.2653 22.8947 19.5196 22.7071 19.7071C22.5196 19.8947 22.2652 20 22 20H2.00002C1.73481 20 1.48045 19.8947 1.29292 19.7071C1.10538 19.5196 1.00002 19.2653 1.00002 19C1.00002 18.7348 1.10538 18.4805 1.29292 18.2929C1.48045 18.1054 1.73481 18 2.00002 18H3.00003V10H2.70802C2.21118 10.0031 1.72303 9.86975 1.29681 9.61441C0.870596 9.35906 0.522683 8.99158 0.291025 8.55204ZM5.00003 18H8.00003V10H5.00003V18ZM10 10V18H14V10H10ZM19 10H16V18H19V10ZM2.06302 7.62504C2.12577 7.74072 2.21914 7.8369 2.33291 7.90304C2.44668 7.96919 2.57645 8.00275 2.70802 8.00004H21.292C21.4236 8.00275 21.5534 7.96919 21.6671 7.90304C21.7809 7.8369 21.8743 7.74072 21.937 7.62504C21.9827 7.5486 22.0048 7.46037 22.0006 7.37142C21.9963 7.28246 21.9658 7.19675 21.913 7.12504C21.6707 6.76495 21.3452 6.46858 20.964 6.26104L13.464 2.35404C13.012 2.11946 12.5103 1.99701 12.001 1.99701C11.4918 1.99701 10.99 2.11946 10.538 2.35404L3.03803 6.26104C2.65701 6.46925 2.33155 6.7659 2.08902 7.12604C2.03611 7.19745 2.00543 7.28287 2.0008 7.37162C1.99618 7.46037 2.01782 7.54852 2.06302 7.62504Z" fill="#232323"/>
</g>
<defs>
<clipPath id="clip0_2626_1388">
<rect width="24" height="24" fill="white"/>
</clipPath>
</defs>
</svg>
