<svg width="175" height="164" viewBox="0 0 175 164" fill="none" xmlns="http://www.w3.org/2000/svg">
<path d="M-30 93.5414C-30.0074 70.1924 -23.8746 47.2692 -12.2415 27.1635C-10.3113 23.7672 -5.9848 17.6538 -5.9848 17.6538C-5.9848 17.6538 0.671303 14.2575 4.13913 12.7699C52.9949 -9.01419 98.3562 -3.09778 139.298 31.8301C157.376 46.2505 169.518 67.0484 173.337 90.1383C178.123 120.746 158.527 155.959 131.477 169.857C131.192 169.933 130.928 170.074 130.704 170.269C130.48 170.464 130.303 170.709 130.186 170.985C124.514 180.712 116.818 189.05 107.642 195.41C98.4662 201.769 88.0338 205.995 77.0819 207.788C66.1301 209.582 54.926 208.899 44.261 205.788C33.5961 202.678 23.7305 197.215 15.3613 189.787C1.31155 178.152 -10.0416 163.49 -17.8841 146.85C-25.7266 130.21 -29.8641 112.005 -30 93.5414ZM70.0079 78.0474C73.1362 76.6413 75.1597 75.6971 77.1831 74.7597C79.0202 73.9174 79.4862 72.8849 77.5492 71.3634C73.0261 67.5401 69.6988 62.449 67.9778 56.7184C66.4384 52.2421 63.4527 48.4333 59.5112 45.9181C54.9133 42.8841 49.6238 41.1167 44.1579 40.7882C38.692 40.4597 33.2359 41.5811 28.3207 44.0433C26.8497 44.7226 24.0875 45.5445 24.0875 45.5445C23.8899 47.4466 23.8587 49.3629 23.9943 51.2707C24.8711 61.0013 22.9954 70.7845 18.5895 79.4603C8.53742 99.7525 5.5493 122.931 10.1163 145.186C11.4919 156.144 16.4109 166.32 24.0941 174.102C31.606 181.352 40.8001 186.534 50.8131 189.162C60.8261 191.791 71.3293 191.779 81.3365 189.128C90.4274 186.783 98.8429 182.268 105.891 175.957C104.42 175.583 103.681 175.393 103.035 175.203C94.7113 173.28 86.8521 169.666 79.9273 164.574C73.0025 159.483 67.1541 153.02 62.7313 145.571C58.3085 138.122 55.402 129.84 54.1855 121.219C52.9689 112.598 53.4672 103.816 55.6507 95.3958C56.2733 93.2468 57.0429 91.145 57.9537 89.1058C57.9537 89.1058 60.9889 89.3843 63.7511 89.9481C78.6942 92.354 92.6888 98.9481 104.175 108.995C115.661 119.042 124.186 132.148 128.801 146.85C130.459 151.544 130.798 151.734 134.505 148.637C145.333 139.323 152.669 126.474 155.269 112.269C157.869 98.0639 155.572 83.3784 148.769 70.7045C135.687 47.7129 114.613 30.5803 89.7289 22.7061C64.8451 14.8319 37.9701 16.7915 14.4361 28.196C11.7737 29.4187 5.78318 31.9524 5.78318 31.9524C5.78318 31.9524 5.23073 33.3584 4.31219 35.1449C-8.60212 55.3954 -14.3162 79.5551 -11.8754 103.588C-11.4007 111.564 -9.72599 119.417 -6.90999 126.873C-6.54391 126.309 -6.17117 126.119 -6.17117 125.936C-5.08289 107.921 -0.417931 90.3207 7.54039 74.2027C12.4056 64.1377 13.8303 52.7006 11.5873 41.7134C11.3144 40.3956 10.7619 37.5835 10.7619 37.5835C11.8761 37.3403 12.9576 36.9617 13.9835 36.4559C22.7454 31.0708 32.9668 28.6903 43.1505 29.6632C56.6757 31.2595 68.7299 36.2385 74.8934 49.6608C77.9946 58.5097 83.5578 66.2431 90.9014 71.9136L92.5587 73.3197C92.1427 73.8979 91.6091 74.3775 90.9945 74.7258C84.5317 78.1095 77.1721 79.2767 70.0079 78.0542V78.0474ZM66.0541 112.411C65.7939 120.898 67.8692 129.29 72.0446 136.634C81.0636 152.223 93.4839 162.174 112.254 161.142C114.165 161.022 116.052 160.642 117.865 160.014C118.065 157.943 117.941 155.852 117.499 153.82C114.902 142.894 109.694 132.795 102.341 124.423C94.9879 116.052 85.7183 109.669 75.3594 105.843C72.7183 104.655 69.8716 104.018 66.986 103.968C66.3809 106.743 66.0685 109.576 66.0541 112.418V112.411Z" fill="white"/>
</svg>
