<svg width="16" height="16" viewBox="0 0 16 16" fill="none" xmlns="http://www.w3.org/2000/svg">
<g clip-path="url(#clip0_2627_6388)">
<path d="M16 6.66678C16 6.61812 15.9947 6.5696 15.984 6.52212L15.1173 2.61012C14.9563 1.86761 14.5449 1.20304 13.9521 0.727838C13.3593 0.252638 12.6211 -0.00429655 11.8613 0.000116961H4.13867C3.37937 -0.00368324 2.64182 0.253531 2.04955 0.728681C1.45728 1.20383 1.04627 1.86806 0.885334 2.61012L0.0160009 6.52212C0.00533965 6.5696 -2.64399e-05 6.61812 9.12932e-07 6.66678V7.33345C-0.000536959 7.98251 0.236615 8.60931 0.666668 9.09545V12.6668C0.667726 13.5505 1.01926 14.3977 1.64415 15.0226C2.26904 15.6475 3.11627 15.9991 4 16.0001H12C12.8837 15.9991 13.731 15.6475 14.3559 15.0226C14.9807 14.3977 15.3323 13.5505 15.3333 12.6668V9.09545C15.7634 8.60931 16.0005 7.98251 16 7.33345V6.66678ZM1.33333 6.73945L2.18667 2.89945C2.28336 2.45429 2.53001 2.05583 2.88534 1.77077C3.24067 1.4857 3.68313 1.33132 4.13867 1.33345H4.66667V3.33345C4.66667 3.51026 4.73691 3.67983 4.86193 3.80486C4.98695 3.92988 5.15652 4.00012 5.33333 4.00012C5.51015 4.00012 5.67971 3.92988 5.80474 3.80486C5.92976 3.67983 6 3.51026 6 3.33345V1.33345H10V3.33345C10 3.51026 10.0702 3.67983 10.1953 3.80486C10.3203 3.92988 10.4899 4.00012 10.6667 4.00012C10.8435 4.00012 11.013 3.92988 11.1381 3.80486C11.2631 3.67983 11.3333 3.51026 11.3333 3.33345V1.33345H11.8613C12.3169 1.33132 12.7593 1.4857 13.1147 1.77077C13.47 2.05583 13.7166 2.45429 13.8133 2.89945L14.6667 6.73945V7.33345C14.6667 7.68707 14.5262 8.02621 14.2761 8.27626C14.0261 8.52631 13.687 8.66678 13.3333 8.66678H12.6667C12.313 8.66678 11.9739 8.52631 11.7239 8.27626C11.4738 8.02621 11.3333 7.68707 11.3333 7.33345C11.3333 7.15664 11.2631 6.98707 11.1381 6.86205C11.013 6.73702 10.8435 6.66678 10.6667 6.66678C10.4899 6.66678 10.3203 6.73702 10.1953 6.86205C10.0702 6.98707 10 7.15664 10 7.33345C10 7.68707 9.85952 8.02621 9.60948 8.27626C9.35943 8.52631 9.02029 8.66678 8.66667 8.66678H7.33333C6.97971 8.66678 6.64057 8.52631 6.39053 8.27626C6.14048 8.02621 6 7.68707 6 7.33345C6 7.15664 5.92976 6.98707 5.80474 6.86205C5.67971 6.73702 5.51015 6.66678 5.33333 6.66678C5.15652 6.66678 4.98695 6.73702 4.86193 6.86205C4.73691 6.98707 4.66667 7.15664 4.66667 7.33345C4.66667 7.68707 4.52619 8.02621 4.27614 8.27626C4.02609 8.52631 3.68696 8.66678 3.33333 8.66678H2.66667C2.31305 8.66678 1.97391 8.52631 1.72386 8.27626C1.47381 8.02621 1.33333 7.68707 1.33333 7.33345V6.73945ZM12 14.6668H4C3.46957 14.6668 2.96086 14.4561 2.58579 14.081C2.21071 13.7059 2 13.1972 2 12.6668V9.91545C2.21773 9.97183 2.44175 10.0003 2.66667 10.0001H3.33333C3.71188 10.0003 4.0861 9.91972 4.431 9.76371C4.7759 9.6077 5.08353 9.37987 5.33333 9.09545C5.58313 9.37987 5.89076 9.6077 6.23566 9.76371C6.58056 9.91972 6.95479 10.0003 7.33333 10.0001H8.66667C9.04521 10.0003 9.41944 9.91972 9.76434 9.76371C10.1092 9.6077 10.4169 9.37987 10.6667 9.09545C10.9165 9.37987 11.2241 9.6077 11.569 9.76371C11.9139 9.91972 12.2881 10.0003 12.6667 10.0001H13.3333C13.5582 10.0003 13.7823 9.97183 14 9.91545V12.6668C14 13.1972 13.7893 13.7059 13.4142 14.081C13.0391 14.4561 12.5304 14.6668 12 14.6668Z" fill="white"/>
</g>
<defs>
<clipPath id="clip0_2627_6388">
<rect width="16" height="16" fill="white"/>
</clipPath>
</defs>
</svg>
