<svg width="24" height="24" viewBox="0 0 24 24" fill="none" xmlns="http://www.w3.org/2000/svg">
<g clip-path="url(#clip0_2626_1502)">
<path d="M13.9322 3.99999C14.7457 4.00079 15.5256 4.32428 16.1008 4.89947C16.676 5.47466 16.9994 6.25455 17.0002 7.06799C17.0002 7.33321 17.1056 7.58756 17.2931 7.7751C17.4807 7.96264 17.735 8.06799 18.0002 8.06799C18.2655 8.06799 18.5198 7.96264 18.7074 7.7751C18.8949 7.58756 19.0002 7.33321 19.0002 7.06799V6.99999C19.0002 6.98099 19.0002 6.96399 19.0002 6.94499C18.9669 5.62272 18.4184 4.36577 17.4717 3.44205C16.525 2.51832 15.2549 2.00087 13.9322 1.99999H13.0002V0.999992C13.0002 0.734776 12.8949 0.480422 12.7074 0.292886C12.5198 0.105349 12.2655 -7.62939e-06 12.0002 -7.62939e-06C11.735 -7.62939e-06 11.4807 0.105349 11.2931 0.292886C11.1056 0.480422 11.0002 0.734776 11.0002 0.999992V1.99999H10.0682C8.86556 2.00128 7.70253 2.43023 6.78704 3.21017C5.87154 3.99011 5.26325 5.07022 5.0709 6.25742C4.87854 7.44462 5.11465 8.66153 5.73704 9.69065C6.35942 10.7198 7.3275 11.494 8.46824 11.875L11.0002 12.72V20H10.0682C9.2548 19.9992 8.47491 19.6757 7.89972 19.1005C7.32453 18.5253 7.00104 17.7454 7.00024 16.932C7.00024 16.6668 6.89489 16.4124 6.70735 16.2249C6.51981 16.0373 6.26546 15.932 6.00024 15.932C5.73503 15.932 5.48067 16.0373 5.29314 16.2249C5.1056 16.4124 5.00024 16.6668 5.00024 16.932V17C5.00024 17.019 5.00024 17.036 5.00024 17.055C5.03362 18.3773 5.58211 19.6342 6.52881 20.5579C7.47551 21.4817 8.74555 21.9991 10.0682 22H11.0002V23C11.0002 23.2652 11.1056 23.5196 11.2931 23.7071C11.4807 23.8946 11.735 24 12.0002 24C12.2655 24 12.5198 23.8946 12.7074 23.7071C12.8949 23.5196 13.0002 23.2652 13.0002 23V22H13.9322C15.1349 21.9987 16.298 21.5698 17.2134 20.7898C18.1289 20.0099 18.7372 18.9298 18.9296 17.7426C19.1219 16.5554 18.8858 15.3385 18.2635 14.3093C17.6411 13.2802 16.673 12.506 15.5322 12.125L13.0002 11.28V3.99999H13.9322ZM14.9022 14.021C15.5937 14.2511 16.1806 14.7198 16.558 15.3432C16.9353 15.9666 17.0785 16.704 16.9618 17.4233C16.8451 18.1426 16.4762 18.7969 15.9211 19.269C15.366 19.7411 14.661 20.0003 13.9322 20H13.0002V13.387L14.9022 14.021ZM11.0002 10.613L9.10024 9.97899C8.40898 9.74892 7.82215 9.28036 7.44478 8.65718C7.0674 8.03399 6.92411 7.29685 7.04055 6.57767C7.15698 5.85849 7.52554 5.20422 8.08028 4.73194C8.63501 4.25966 9.3397 4.0002 10.0682 3.99999H11.0002V10.613Z" fill="#232323"/>
</g>
<defs>
<clipPath id="clip0_2626_1502">
<rect width="24" height="24" fill="white"/>
</clipPath>
</defs>
</svg>
