<svg width="16" height="16" viewBox="0 0 16 16" fill="none" xmlns="http://www.w3.org/2000/svg">
<g clip-path="url(#clip0_2627_6390)">
<path d="M8.66683 13.3334C9.55056 13.3323 10.3978 12.9808 11.0227 12.3559C11.6476 11.731 11.9991 10.8838 12.0002 10.0001V4.16207C12.0012 3.81165 11.9327 3.4645 11.7985 3.14075C11.6644 2.81701 11.4674 2.5231 11.2188 2.27607L9.72416 0.781406C9.47714 0.532855 9.18323 0.335808 8.85948 0.201686C8.53574 0.0675643 8.18859 -0.000964266 7.83816 7.26282e-05H4.66683C3.7831 0.0011312 2.93587 0.352661 2.31098 0.977553C1.68608 1.60244 1.33455 2.44968 1.3335 3.33341V10.0001C1.33455 10.8838 1.68608 11.731 2.31098 12.3559C2.93587 12.9808 3.7831 13.3323 4.66683 13.3334H8.66683ZM2.66683 10.0001V3.33341C2.66683 2.80297 2.87754 2.29427 3.25262 1.91919C3.62769 1.54412 4.1364 1.33341 4.66683 1.33341C4.66683 1.33341 7.94616 1.34274 8.00016 1.34941V2.66674C8.00016 3.02036 8.14064 3.3595 8.39069 3.60955C8.64074 3.8596 8.97987 4.00007 9.3335 4.00007H10.6508C10.6575 4.05407 10.6668 10.0001 10.6668 10.0001C10.6668 10.5305 10.4561 11.0392 10.081 11.4143C9.70597 11.7894 9.19726 12.0001 8.66683 12.0001H4.66683C4.1364 12.0001 3.62769 11.7894 3.25262 11.4143C2.87754 11.0392 2.66683 10.5305 2.66683 10.0001ZM14.6668 5.33341V12.6667C14.6658 13.5505 14.3142 14.3977 13.6894 15.0226C13.0645 15.6475 12.2172 15.999 11.3335 16.0001H5.3335C5.15669 16.0001 4.98712 15.9298 4.86209 15.8048C4.73707 15.6798 4.66683 15.5102 4.66683 15.3334C4.66683 15.1566 4.73707 14.987 4.86209 14.862C4.98712 14.737 5.15669 14.6667 5.3335 14.6667H11.3335C11.8639 14.6667 12.3726 14.456 12.7477 14.081C13.1228 13.7059 13.3335 13.1972 13.3335 12.6667V5.33341C13.3335 5.15659 13.4037 4.98703 13.5288 4.862C13.6538 4.73698 13.8234 4.66674 14.0002 4.66674C14.177 4.66674 14.3465 4.73698 14.4716 4.862C14.5966 4.98703 14.6668 5.15659 14.6668 5.33341Z" fill="white"/>
</g>
<defs>
<clipPath id="clip0_2627_6390">
<rect width="16" height="16" fill="white"/>
</clipPath>
</defs>
</svg>
